<svg width="78" height="62" viewBox="0 0 78 62" fill="none" xmlns="http://www.w3.org/2000/svg">
<path d="M75.9993 5.00066L75.9992 2.99526L73.9938 3.00076L69.6025 3.0128H69.5997H59.9569H58.2778H36.976C33.286 3.0128 30.107 3.90954 27.6503 5.91568C25.191 7.92395 23.6922 10.8506 22.9913 14.4509L22.9907 14.4539C21.5214 22.062 25.819 29.9056 34.4597 37.8475L34.5153 37.8986L34.5745 37.9453C35.6528 38.7959 36.3508 39.4704 36.7569 39.9733C36.0184 40.1319 34.869 40.2155 33.2317 40.168L33.2027 40.1671H33.1737H4H2V42.1671V57.9296V59.9296H4H50.1741H50.3405L50.5045 59.9022C54.565 59.222 57.8866 57.8017 60.2229 55.4524C62.5945 53.0674 63.7488 49.9287 63.8336 46.2414L63.8337 46.2373C63.9893 38.825 59.5916 31.5626 51.4925 24.4625L51.4723 24.4448L51.4515 24.4276C50.6973 23.8015 50.1823 23.2942 49.8515 22.9026C50.5257 22.7813 51.5242 22.7204 52.9047 22.7617L52.9345 22.7626H52.9644H56.2786V22.7761L58.2801 22.7746L74.0015 22.7625L76.0001 22.761L76 20.7624L75.9993 5.00066ZM37.1298 40.5497C37.1288 40.5494 37.1244 40.5389 37.1199 40.5193C37.1286 40.5402 37.1309 40.55 37.1298 40.5497ZM49.4155 22.2589C49.4162 22.2592 49.4198 22.2675 49.4241 22.2831C49.4169 22.2664 49.4148 22.2586 49.4155 22.2589Z" fill="#FFEE93" stroke="black" stroke-width="4"/>
</svg>
