<svg width="193" height="77" viewBox="0 0 193 77" fill="none" xmlns="http://www.w3.org/2000/svg">
<path d="M52.9018 53.7388H49.8148V63.0743H32.413V53.7388H0L6.22376 19.5083H24.2726L20.8494 38.2043H32.413V13.2595H49.8148V38.2043H52.9018V53.7388ZM192.936 53.7388H189.849V63.0743H172.447V53.7388H140.034L146.258 19.5083H164.306L160.883 38.2043H172.447V13.2595H189.849V38.2043H192.936V53.7388Z" fill="url(#paint0_linear)"/>
<path fill-rule="evenodd" clip-rule="evenodd" d="M71.2686 20.8332L66.1658 25.9684C63.0545 25.9801 63.0929 25.2553 61.4871 28.1546C52.2491 44.8334 58.9559 64.9394 75.491 73.0699C85.2146 77.8512 96.4985 77.262 105.869 72.0742C108.2 70.7842 108.781 70.4532 108.179 67.2995C115.138 60.1457 112.447 62.623 115.393 62.2691C117.935 61.9638 119.349 56.9087 120.525 54.3774C126.667 53.6361 125.225 56.0612 129.384 51.8482C130.886 50.3268 133.783 47.7306 134.873 46.1103C136.836 43.1913 134.655 39.8421 131.818 39.4794C128.277 39.0264 126.834 42.6832 124.894 43.8148C125.893 40.2684 132.72 25.9614 133.526 23.0684C134.178 20.7217 131.364 18.3919 129.766 17.2254C129.128 17.5704 121.319 25.4826 114.396 32.5316C113.603 30.8482 112.628 29.2287 111.468 27.7037C112.665 26.4716 113.865 25.2571 115.087 24.1139C114.562 22.7992 110.812 19.1893 109.458 18.5252C109.129 18.7394 107.617 20.1928 105.712 22.0829C104.201 20.9898 102.602 20.071 100.943 19.3255C106.483 13.8219 112.561 7.75582 116.097 3.8407C115.415 2.99776 112.939 0.174682 111.492 0.00425925C109.783 -0.197213 94.699 6.81162 92.6765 7.7036L74.3267 15.6118C70.3403 17.8026 71.0565 17.7822 71.2686 20.8332V20.8332ZM97.2028 36.5858C101.335 40.6978 101.335 47.364 97.2028 51.4753C93.0703 55.5873 86.3698 55.5873 82.2374 51.4753C78.1042 47.364 78.1042 40.6978 82.2374 36.5858C86.3698 32.4741 93.0703 32.4741 97.2028 36.5858ZM95.224 38.5539C98.2641 41.5792 98.2641 46.4826 95.224 49.5072C92.184 52.5317 87.2555 52.5317 84.2157 49.5072C81.176 46.4826 81.176 41.5792 84.2157 38.5539C87.2555 35.5297 92.184 35.5297 95.224 38.5539Z" fill="url(#paint1_linear)"/>
<defs>
<linearGradient id="paint0_linear" x1="96.4678" y1="43.7055" x2="96.4678" y2="63.0743" gradientUnits="userSpaceOnUse">
<stop stop-color="#684F13"/>
<stop offset="1" stop-color="#857140"/>
</linearGradient>
<linearGradient id="paint1_linear" x1="96.4678" y1="46.6541" x2="96.4678" y2="76.334" gradientUnits="userSpaceOnUse">
<stop stop-color="#684F13"/>
<stop offset="1" stop-color="#857140"/>
</linearGradient>
</defs>
</svg>
