<svg width="193" height="77" viewBox="0 0 193 77" fill="none" xmlns="http://www.w3.org/2000/svg">
<path fill-rule="evenodd" clip-rule="evenodd" d="M76.2874 13.6239C80.5688 9.35735 87.0727 8.92088 90.8139 12.6494C94.5554 16.3778 94.1179 22.8592 89.8365 27.1257C85.5555 31.3919 79.0512 31.828 75.3097 28.0996C71.5685 24.3714 72.006 17.8901 76.2874 13.6239V13.6239ZM134.762 38.6883C134.741 40.2299 134.628 41.7485 134.428 43.2403H131.744V46.057H129.976V48.8734H120.451V51.6898H121.977V54.5062H126.144V57.3226H119.85V60.1393H117.333V62.9557H111.709V65.7724H115.197V68.5888H111.372V71.4051H104.848V74.2215H109.058C105.116 75.5902 100.879 76.3343 96.4678 76.3343C75.49 76.3343 58.4541 59.5271 58.174 38.6883H134.762H134.762ZM96.4678 0C103.628 0 110.328 1.95862 116.06 5.36636H113.172V8.18274H109.018V10.9991H115.309V13.8155H111.982V16.6319H118.121V19.4486H120.154V22.265H122.058V25.0817H126.667V27.8981H123.07V30.7145H128.783V33.5308H134.486C134.641 34.8049 134.733 36.0981 134.758 37.4075H58.1771C58.5836 16.6792 75.5701 4.92133e-06 96.4678 4.92133e-06V0ZM80.0317 16.9554C83.4914 14.0801 88.0268 13.8141 90.1593 16.3623C92.293 18.9116 91.2165 23.3094 87.7561 26.185C84.2969 29.06 79.7611 29.3264 77.6275 26.7778C75.4946 24.2296 76.5707 19.8311 80.0317 16.9554V16.9554ZM84.6593 22.9177C85.715 22.0406 87.0988 21.9594 87.7494 22.7367C88.4004 23.5147 88.0719 24.8566 87.0162 25.7341C85.9605 26.6113 84.5767 26.6924 83.9257 25.9148C83.2747 25.1375 83.6032 23.7952 84.6593 22.9177V22.9177Z" fill="url(#paint0_linear)"/>
<path d="M52.9018 53.7393H49.8148V63.0748H32.413V53.7393H0L6.22376 19.5088H24.2726L20.8494 38.2048H32.413V13.26H49.8148V38.2048H52.9018V53.7393H52.9018ZM192.936 53.7393H189.849V63.0748H172.447V53.7393H140.034L146.258 19.5088H164.306L160.883 38.2048H172.447V13.26H189.849V38.2048H192.936V53.7393H192.936Z" fill="url(#paint1_linear)"/>
<defs>
<linearGradient id="paint0_linear" x1="96.4678" y1="46.6543" x2="96.4678" y2="76.3343" gradientUnits="userSpaceOnUse">
<stop stop-color="#FFEE93"/>
<stop offset="1" stop-color="#FCF5C7"/>
</linearGradient>
<linearGradient id="paint1_linear" x1="96.4678" y1="43.706" x2="96.4678" y2="63.0748" gradientUnits="userSpaceOnUse">
<stop stop-color="#FFEE93"/>
<stop offset="1" stop-color="#FCF5C7"/>
</linearGradient>
</defs>
</svg>
