<svg width="195" height="53" viewBox="0 0 195 53" fill="none" xmlns="http://www.w3.org/2000/svg">
<path fill-rule="evenodd" clip-rule="evenodd" d="M75.2322 0.000750274H65.6025H55.9569H54.2778H32.976C26.2333 0.000750274 22.2306 3.26594 20.9544 9.82109C19.6909 16.3635 23.3065 23.5444 31.8131 31.363C36.9675 35.4287 36.0792 37.3554 29.1737 37.1551H0V52.9176H46.1741C53.7932 51.6414 57.6833 47.7384 57.8341 41.1833C57.9714 34.6409 54.094 27.8974 46.1741 20.9544C41.7588 17.2893 42.6846 15.5629 48.9644 15.7505H54.2786V15.7625H75.233V15.7505H88.6471L94.302 32.6887H79.7031L83.8566 21.2545H67.0678L56.6967 52.9176H75.6741L79.0144 43.3854H94.7394L98.0668 52.9176H116.607H118.083H133.834L133.758 37.8176L144.905 52.9176H145.856L156.927 37.8176V52.9176H174.154H195V37.1551H174.154V0H156.927L145.342 15.8255L133.834 0H105.611V15.632L100.381 0H75.233L75.2322 0.000750274ZM116.606 48.5052L105.649 15.7505H116.606V48.5052Z" fill="#684F13"/>
<path d="M160.928 41.9244L162.103 40.0165L168.682 44.086V45.9857L162.13 50.0574L160.928 48.2485L166.394 45.0373L160.928 41.9244Z" fill="#F2F2F2"/>
<path d="M171.164 44.1025L177.756 40.0165L178.917 41.8501L173.46 45.0373L178.917 48.1637L177.714 50.0574L171.164 45.9857V44.1025Z" fill="#F2F2F2"/>
<path d="M160.928 45.0373C160.928 45.2053 160.967 45.3576 161.046 45.4964C161.124 45.6337 161.233 45.7418 161.37 45.819C161.508 45.8971 161.661 45.9361 161.827 45.9361C161.995 45.9361 162.146 45.8971 162.284 45.819C162.42 45.741 162.527 45.6337 162.603 45.4964C162.68 45.3576 162.718 45.2053 162.718 45.0373C162.718 44.8692 162.679 44.7161 162.602 44.5781C162.524 44.4408 162.417 44.3327 162.278 44.2555C162.141 44.1774 161.989 44.1384 161.821 44.1384C161.651 44.1384 161.5 44.1774 161.363 44.2555C161.226 44.3335 161.12 44.4408 161.043 44.5781C160.966 44.7169 160.929 44.8692 160.929 45.0373H160.928Z" fill="#F2F2F2"/>
<path d="M186.911 48.9141L190.997 42.3215L189.164 41.16L185.977 46.6183L182.851 41.16L180.956 42.3627L185.028 48.9141H186.911Z" fill="#F2F2F2"/>
<path d="M175.683 45.0373C175.683 45.2053 175.722 45.3576 175.8 45.4964C175.879 45.6337 175.988 45.7418 176.125 45.819C176.263 45.8971 176.416 45.9361 176.582 45.9361C176.75 45.9361 176.901 45.8971 177.038 45.819C177.175 45.741 177.282 45.6337 177.359 45.4964C177.435 45.3576 177.474 45.2053 177.474 45.0373C177.474 44.8692 177.435 44.7161 177.358 44.5781C177.28 44.4408 177.173 44.3327 177.035 44.2555C176.897 44.1774 176.744 44.1384 176.577 44.1384C176.407 44.1384 176.256 44.1774 176.119 44.2555C175.983 44.3335 175.875 44.4408 175.799 44.5781C175.722 44.7169 175.684 44.8692 175.684 45.0373H175.683Z" fill="#F2F2F2"/>
</svg>
