<svg width="40" height="33" viewBox="0 0 40 33" fill="none" xmlns="http://www.w3.org/2000/svg">
<path fill-rule="evenodd" clip-rule="evenodd" d="M37.254 12.2254L37.3407 9.99993L39.7396 9.91323L39.7974 2.48553L37.3696 2.39883L37.2829 0L17.7455 0.0289015L17.7166 12.2543L37.254 12.2254Z" fill="#E6E6E6"/>
<path fill-rule="evenodd" clip-rule="evenodd" d="M5.31811 12.4276L5.34702 0.231175L2.74588 0.14447L2.86148 2.5433L0.260345 2.68781L0.404853 9.88429C1.44531 10.4334 1.76323 10.0577 2.80368 10.26L2.94819 12.3698L5.31811 12.4276Z" fill="#E6E6E6"/>
<path fill-rule="evenodd" clip-rule="evenodd" d="M10.2891 11.1558L10.318 1.32932L7.71689 1.24261L7.68799 10.9535C8.61284 11.4449 9.45098 11.3003 10.2891 11.1269V11.1558Z" fill="#E6E6E6"/>
<path fill-rule="evenodd" clip-rule="evenodd" d="M15.1157 11.2139L15.3469 3.78617C15.4047 2.89022 15.5204 2.10988 15.0579 1.30063L12.7458 1.21393L12.7169 11.1272L15.1157 11.2139Z" fill="#E6E6E6"/>
<path fill-rule="evenodd" clip-rule="evenodd" d="M9.21986 31.127C9.71119 31.9074 9.27767 31.4739 9.76899 32.3409L11.9655 32.2542L12.0811 31.0403L16.5609 31.0981L16.5898 19.2196L12.0811 19.1618L11.9366 17.9479L9.68229 18.0346C9.19096 18.815 9.62448 18.3815 9.13316 19.2485C8.69963 19.1618 6.35861 19.0173 4.13319 19.104C-0.462153 19.2774 0.173681 21.9363 0.0580748 23.2369L0.000271676 28.1502C-0.0286299 29.7976 2.25459 31.2137 3.90198 31.1848L9.19096 31.127H9.21986Z" fill="#E6E6E6"/>
<path fill-rule="evenodd" clip-rule="evenodd" d="M35.3469 30.8957L35.4336 28.4968H18.9308L18.8441 30.8089C20.0291 31.4448 34.4221 31.098 35.318 30.9246L35.3469 30.8957Z" fill="#E6E6E6"/>
<path fill-rule="evenodd" clip-rule="evenodd" d="M35.1157 21.6183C35.5781 20.7224 35.4625 19.942 35.2891 19.1328C34.4509 18.9594 19.9423 18.786 18.9019 19.3929L18.8152 21.5894H35.0868L35.1157 21.6183Z" fill="#E6E6E6"/>
<path fill-rule="evenodd" clip-rule="evenodd" d="M35.3468 26.2139L35.4046 23.9017H18.7573L18.844 26.2139H35.3468Z" fill="#E6E6E6"/>
<path fill-rule="evenodd" clip-rule="evenodd" d="M39.9421 29.6818L39.9999 20.4044L37.6878 20.3177L37.6589 29.624L39.9421 29.6818Z" fill="#E6E6E6"/>
</svg>
