<svg width="46" height="40" viewBox="0 0 46 40" fill="none" xmlns="http://www.w3.org/2000/svg">
<path fill-rule="evenodd" clip-rule="evenodd" d="M26.0672 22.8062L28.9567 19.9577L15.7592 7.62086C15.0215 7.00607 14.3042 6.14536 13.0951 5.1617C12.009 4.28049 8.50465 0.427795 7.58246 0.427795C6.92669 0.427795 6.37337 1.16555 6.43485 1.75985C6.53732 2.60006 9.50881 5.20268 10.2056 6.0429L26.0262 22.8062H26.0672Z" fill="#00FF00"/>
<path fill-rule="evenodd" clip-rule="evenodd" d="M41.0477 39.5083L41.9699 38.668L42.974 39.5902L45.9865 36.6187L45.0643 35.5941L45.9865 34.5899L38.0967 26.7206L33.1578 31.6389L41.0477 39.5083Z" fill="#E6E6E6"/>
<path fill-rule="evenodd" clip-rule="evenodd" d="M28.0755 26.7203L33.0143 21.802L31.9897 20.7159L31.0675 21.72L29.9608 20.7364L27.1123 23.7079C27.3172 24.3432 27.5836 24.3227 27.932 24.8145L27.1328 25.7162L28.055 26.6999L28.0755 26.7203Z" fill="#E6E6E6"/>
<path fill-rule="evenodd" clip-rule="evenodd" d="M30.6167 28.2163L34.5924 24.2816L33.5677 23.1955L29.6331 27.0892C29.8175 27.663 30.2069 27.9499 30.6167 28.2163Z" fill="#E6E6E6"/>
<path fill-rule="evenodd" clip-rule="evenodd" d="M32.5226 30.1838L35.617 27.2738C36.0064 26.9459 36.3753 26.6795 36.4982 26.1466L35.5965 25.1835L31.5799 29.1591L32.5226 30.1633V30.1838Z" fill="#E6E6E6"/>
<path fill-rule="evenodd" clip-rule="evenodd" d="M17.0503 19.9373L21.1694 21.6587L24.5097 17.888C24.9606 17.4166 25.309 17.0887 25.7803 16.6174L35.0637 6.59629C35.4735 6.18643 35.8834 5.83805 36.2318 5.3872C37.5023 3.85022 39.5926 2.19028 39.5721 1.14514C39.5721 0.120482 38.486 -0.514803 37.3794 0.550837L32.8094 4.85438C30.8216 6.8627 17.5831 19.0971 17.0093 19.9373H17.0503Z" fill="#FF0000"/>
<path fill-rule="evenodd" clip-rule="evenodd" d="M12.6032 22.1505C12.0499 22.0275 12.4393 22.0275 11.845 21.8636L10.9433 22.8472L11.4146 23.4211L9.46777 25.3064L14.5501 30.4297L16.5174 28.5238L17.0912 28.9747L18.0339 27.95C17.9109 27.3967 17.9109 27.7861 17.747 27.1918C18.1568 26.9254 21.3538 23.8514 21.5177 23.2161C21.0464 23.1137 20.2266 22.7038 19.7143 22.4784C19.0585 22.1915 18.6077 22.007 17.9314 21.7406L14.3656 20.2446L12.6032 22.1095V22.1505Z" fill="#E6E6E6"/>
<path fill-rule="evenodd" clip-rule="evenodd" d="M1.45494 33.4832L2.43861 34.5489L9.52921 27.4582L8.56604 26.4336C7.7873 26.6795 1.74184 33.0119 1.43445 33.4627L1.45494 33.4832Z" fill="#E6E6E6"/>
<path fill-rule="evenodd" clip-rule="evenodd" d="M5.55359 37.3767C5.73803 37.9506 6.12739 38.2375 6.55775 38.5244C6.9881 38.2375 13.3 32.0895 13.4844 31.3723L12.5622 30.3886L5.55359 37.3767Z" fill="#E6E6E6"/>
<path fill-rule="evenodd" clip-rule="evenodd" d="M3.48376 35.4915L4.42645 36.4957L11.599 29.3436L10.5744 28.4009L3.48376 35.4915Z" fill="#E6E6E6"/>
<path fill-rule="evenodd" clip-rule="evenodd" d="M0 35.9834L3.97566 40L5.00031 39.0368L1.02465 35.0202L0 35.9834Z" fill="#E6E6E6"/>
</svg>
