<svg width="40" height="33" viewBox="0 0 40 33" fill="none" xmlns="http://www.w3.org/2000/svg">
<path fill-rule="evenodd" clip-rule="evenodd" d="M37.254 12.2254L37.3408 9.99993L39.7396 9.91323L39.7974 2.48553L37.3697 2.39883L37.2829 0L17.7455 0.0289015L17.7166 12.2543L37.254 12.2254Z" fill="black"/>
<path fill-rule="evenodd" clip-rule="evenodd" d="M5.31812 12.4276L5.34702 0.231196L2.74588 0.144492L2.86149 2.54332L0.260347 2.68783L0.404855 9.88431C1.44531 10.4334 1.76323 10.0577 2.80368 10.26L2.94819 12.3698L5.31812 12.4276Z" fill="black"/>
<path fill-rule="evenodd" clip-rule="evenodd" d="M10.2891 11.1558L10.318 1.32929L7.71689 1.24259L7.68798 10.9535C8.61283 11.4448 9.45098 11.3003 10.2891 11.1269V11.1558Z" fill="black"/>
<path fill-rule="evenodd" clip-rule="evenodd" d="M15.1157 11.2138L15.3469 3.78614C15.4047 2.89019 15.5204 2.10985 15.0579 1.30061L12.7458 1.2139L12.7169 11.1271L15.1157 11.2138Z" fill="black"/>
<path fill-rule="evenodd" clip-rule="evenodd" d="M9.21986 31.1271C9.71119 31.9074 9.27767 31.4739 9.76899 32.3409L11.9655 32.2542L12.0811 31.0404L16.5609 31.0982L16.5898 19.2196L12.0811 19.1618L11.9366 17.948L9.68229 18.0347C9.19096 18.815 9.62448 18.3815 9.13316 19.2485C8.69963 19.1618 6.35861 19.0173 4.13319 19.104C-0.462153 19.2774 0.173681 21.9364 0.0580748 23.2369L0.000271676 28.1502C-0.0286299 29.7976 2.25459 31.2138 3.90198 31.1849L9.19096 31.1271H9.21986Z" fill="black"/>
<path fill-rule="evenodd" clip-rule="evenodd" d="M35.3469 30.8957L35.4336 28.4969H18.9308L18.8441 30.809C20.0291 31.4448 34.4221 31.098 35.318 30.9246L35.3469 30.8957Z" fill="black"/>
<path fill-rule="evenodd" clip-rule="evenodd" d="M35.1156 21.6183C35.5781 20.7224 35.4625 19.942 35.2891 19.1328C34.4509 18.9594 19.9423 18.786 18.9019 19.3929L18.8152 21.5894H35.0867L35.1156 21.6183Z" fill="black"/>
<path fill-rule="evenodd" clip-rule="evenodd" d="M35.3468 26.2139L35.4046 23.9018H18.7573L18.844 26.2139H35.3468Z" fill="black"/>
<path fill-rule="evenodd" clip-rule="evenodd" d="M39.9421 29.6818L39.9999 20.4044L37.6878 20.3177L37.6589 29.624L39.9421 29.6818Z" fill="black"/>
</svg>
