<svg width="31" height="31" viewBox="0 0 31 31" fill="none" xmlns="http://www.w3.org/2000/svg">
<path fill-rule="evenodd" clip-rule="evenodd" d="M7.41059 6.11411C9.03912 4.48512 11.5129 4.31855 12.936 5.74211C14.3592 7.16567 14.1927 9.64013 12.5642 11.2691C10.9358 12.898 8.46186 13.0645 7.03866 11.641C5.61563 10.2176 5.78207 7.7431 7.41059 6.11428V6.11411ZM29.6523 15.6836C29.6444 16.2722 29.6014 16.8519 29.5254 17.4216H28.5044V18.497H27.8319V19.5723H24.209V20.6477H24.7893V21.723H26.3743V22.7983H23.9804V23.8738H23.0231V24.9491H20.884V26.0245H22.2104V27.0999H20.7558V28.1752H18.2742V29.2505H19.8756C18.3759 29.7731 16.7646 30.0571 15.0866 30.0571C7.10732 30.0571 0.627485 23.6401 0.520935 15.684H29.6523V15.6836ZM15.0866 0.912598C17.8099 0.912598 20.3585 1.66042 22.5387 2.96142H21.4402V4.03673H19.8602V5.11204H22.2531V6.18735H20.9876V7.26266H23.3227V8.33814H24.0959V9.41345H24.8202V10.4889H26.5733V11.5642H25.2052V12.6395H27.3784V13.7149H29.5473C29.6062 14.2013 29.6414 14.695 29.651 15.1949H0.521928C0.676458 7.28093 7.1376 0.91293 15.0865 0.91293L15.0866 0.912598ZM8.83495 7.38605C10.1509 6.28832 11.8759 6.18668 12.6871 7.15953C13.4986 8.13287 13.0892 9.81185 11.773 10.9097C10.4572 12.0073 8.73204 12.1091 7.92034 11.1361C7.10898 10.1633 7.51847 8.48395 8.83479 7.38588L8.83495 7.38605ZM10.5952 9.66239C10.9967 9.32742 11.523 9.29653 11.7705 9.5933C12.0182 9.8904 11.8931 10.4027 11.4916 10.7377C11.09 11.0727 10.5637 11.1036 10.3161 10.8066C10.0684 10.5098 10.1935 9.99735 10.595 9.66239H10.5952Z" stroke="#828282" stroke-width="0.705641" stroke-miterlimit="22.9256"/>
</svg>
