<svg width="30" height="31" viewBox="0 0 30 31" fill="none" xmlns="http://www.w3.org/2000/svg">
<path fill-rule="evenodd" clip-rule="evenodd" d="M7.41371 6.14546C9.04287 4.5164 11.5179 4.34974 12.9416 5.77327C14.3654 7.19696 14.1989 9.67182 12.5697 11.3009C10.9405 12.9299 8.46546 13.0964 7.04162 11.6727C5.61796 10.2492 5.78438 7.77434 7.41371 6.14546ZM29.6653 15.7159C29.6573 16.3045 29.6143 16.8844 29.5385 17.4541H28.5171V18.5296H27.8443V19.605H24.2199V20.6803H24.8003V21.7557H26.386V22.831H23.9911V23.9066H23.0333V24.9819H20.8932V26.0574H22.2201V27.1328H20.7647V28.2082H18.2821V29.2835H19.8842C18.3839 29.8062 16.7719 30.0903 15.0932 30.0903C7.11029 30.0903 0.627567 23.6727 0.520996 15.7156H29.6655L29.6653 15.7159ZM15.0932 0.943327C17.8178 0.943327 20.3674 1.69121 22.5487 2.99245H21.4497V4.06781H19.8689V5.14317H22.2629V6.21853H20.9966V7.29388H23.3329V8.36941H24.1065V9.44477H24.8312V10.5203H26.5852V11.5957H25.2164V12.671H27.3906V13.7464H29.5606C29.6196 14.2328 29.6547 14.7266 29.6643 15.2266H0.522326C0.676946 7.31174 7.14105 0.942993 15.0933 0.942993L15.0932 0.943327ZM8.83871 7.4175C10.1551 6.31962 11.8811 6.21802 12.6926 7.19095C13.5046 8.16438 13.0949 9.84365 11.778 10.9417C10.4615 12.0394 8.73563 12.1412 7.92362 11.1681C7.11195 10.1952 7.52144 8.51555 8.83854 7.4175H8.83871ZM10.5997 9.69417C11.0014 9.35919 11.5281 9.32833 11.7756 9.62511C12.0234 9.92222 11.8983 10.4345 11.4967 10.7697C11.095 11.1047 10.5683 11.1355 10.3206 10.8386C10.0728 10.5418 10.1979 10.0293 10.5997 9.69417Z" fill="#333333" stroke="#333333" stroke-width="0.199976" stroke-miterlimit="22.9256"/>
</svg>
