<svg width="51" height="77" viewBox="0 0 51 77" fill="none" xmlns="http://www.w3.org/2000/svg">
<path d="M6.50857 49.4442C6.50857 47.4898 6.81619 45.6658 7.43143 43.9721C8.07905 42.2783 8.88857 40.8615 9.86 39.7214C10.8314 38.5814 11.9 37.4251 13.0657 36.2525C14.2314 35.0474 15.3324 33.9725 16.3686 33.0279C17.4048 32.0508 18.3276 30.8945 19.1371 29.559C19.979 28.191 20.5295 26.7741 20.7886 25.3084C20.5619 24.0381 19.9952 23.1912 19.0886 22.7678C18.1819 22.3118 17 22.0838 15.5429 22.0838C11.1714 22.2466 6.73524 23.2238 2.23429 25.0152L0 23.1586C0 21.1066 0.0161905 18.1263 0.0485714 14.2176C0.0809524 10.2764 0.0971429 7.26354 0.0971429 5.17893C0.0971429 3.87606 1.44095 2.80118 4.12857 1.95431C6.81619 1.10744 9.55238 0.570008 12.3371 0.342005C15.1219 0.114002 17.8743 0 20.5943 0C29.0133 0.0977157 35.36 1.2703 39.6343 3.51777L41.6743 4.59264C44.4267 6.35152 46.5314 8.33841 47.9886 10.5533V11.9213C48.6362 13.2242 49.2838 14.9994 49.9314 17.2468C50.579 19.4943 50.9352 20.7157 51 20.9112C50.7086 25.6667 49.7371 29.1193 48.0857 31.269C46.8552 32.7999 45.4629 34.2494 43.9086 35.6174C42.3543 36.9528 40.9457 38.0277 39.6829 38.842C38.4524 39.6563 37.2705 40.4706 36.1371 41.2849C35.0362 42.0992 34.1619 42.9624 33.5143 43.8744C32.8667 44.7864 32.5105 45.7961 32.4457 46.9036C32.5429 47.3921 32.6238 48.1739 32.6886 49.2487C32.7533 50.291 32.8343 51.0728 32.9314 51.5939C32.9314 51.8545 32.8667 52.1151 32.7371 52.3756C32.6076 52.6362 32.4781 52.7665 32.3486 52.7665H25.0629C21.2419 52.7665 15.5105 52.9619 7.86857 53.3528C6.9619 53.3528 6.50857 52.0499 6.50857 49.4442ZM6.21714 73.9708V72.7005C6.21714 71.9188 6.24952 71.3325 6.31429 70.9416V66.0558C6.24952 65.665 6.21714 64.981 6.21714 64.0038C6.21714 60.486 6.70286 58.3689 7.67429 57.6523C8.80762 57.6849 11.1552 57.7663 14.7171 57.8966C18.279 57.9943 21.08 58.0431 23.12 58.0431C24.7067 58.1083 25.921 58.1571 26.7629 58.1897C27.6048 58.2223 28.4467 58.3037 29.2886 58.434C30.1305 58.5317 30.7133 58.6457 31.0371 58.776C31.361 58.9063 31.6686 59.118 31.96 59.4112C32.2514 59.6717 32.4133 59.9812 32.4457 60.3395C32.5105 60.6652 32.5429 61.1049 32.5429 61.6586V66.5444C32.5429 67.2284 32.559 68.2219 32.5914 69.5247C32.6238 70.8276 32.64 71.8211 32.64 72.5051V75.4365C32.5429 76.088 32.1867 76.4137 31.5714 76.4137C31.4419 76.4137 31.3771 76.3486 31.3771 76.2183C29.5638 76.2508 24.1238 76.5114 15.0571 77H7.77143L6.31429 75.2411C6.31429 74.5897 6.2819 74.1662 6.21714 73.9708Z" fill="#333333"/>
</svg>
