<svg width="180" height="270" viewBox="0 0 180 270" fill="none" xmlns="http://www.w3.org/2000/svg">
<path d="M22.9004 172.949C22.9004 166.113 23.9827 159.733 26.1475 153.809C28.4261 147.884 31.2744 142.928 34.6924 138.94C38.1104 134.953 41.8701 130.908 45.9717 126.807C50.0732 122.591 53.9469 118.831 57.5928 115.527C61.2386 112.109 64.4857 108.065 67.334 103.394C70.2962 98.6084 72.2331 93.6523 73.1445 88.5254C72.347 84.082 70.3532 81.1198 67.1631 79.6387C63.973 78.0436 59.8145 77.2461 54.6875 77.2461C39.3066 77.8158 23.6979 81.2337 7.86133 87.5L0 81.0059C0 73.8281 0.0569661 63.4033 0.170898 49.7314C0.284831 35.9456 0.341797 25.4069 0.341797 18.1152C0.341797 13.5579 5.06999 9.79818 14.5264 6.83594C23.9827 3.8737 33.61 1.99382 43.4082 1.19629C53.2064 0.398763 62.8906 0 72.4609 0C102.083 0.341797 124.414 4.44336 139.453 12.3047L146.631 16.0645C156.315 22.2168 163.721 29.1667 168.848 36.9141V41.6992C171.126 46.2565 173.405 52.4658 175.684 60.3271C177.962 68.1885 179.215 72.4609 179.443 73.1445C178.418 89.7786 175 101.855 169.189 109.375C164.86 114.73 159.961 119.8 154.492 124.585C149.023 129.256 144.067 133.016 139.624 135.864C135.295 138.713 131.136 141.561 127.148 144.409C123.275 147.257 120.199 150.277 117.92 153.467C115.641 156.657 114.388 160.189 114.16 164.062C114.502 165.771 114.787 168.506 115.015 172.266C115.243 175.911 115.527 178.646 115.869 180.469C115.869 181.38 115.641 182.292 115.186 183.203C114.73 184.115 114.274 184.57 113.818 184.57H88.1836C74.7396 184.57 54.5736 185.254 27.6855 186.621C24.4954 186.621 22.9004 182.064 22.9004 172.949ZM21.875 258.74V254.297C21.875 251.562 21.9889 249.512 22.2168 248.145V231.055C21.9889 229.688 21.875 227.295 21.875 223.877C21.875 211.572 23.584 204.167 27.002 201.66C30.9896 201.774 39.2497 202.059 51.7822 202.515C64.3148 202.856 74.1699 203.027 81.3477 203.027C86.9303 203.255 91.2028 203.426 94.165 203.54C97.1273 203.654 100.09 203.939 103.052 204.395C106.014 204.736 108.065 205.135 109.204 205.591C110.343 206.047 111.426 206.787 112.451 207.812C113.477 208.724 114.046 209.806 114.16 211.06C114.388 212.199 114.502 213.737 114.502 215.674V232.764C114.502 235.156 114.559 238.631 114.673 243.188C114.787 247.746 114.844 251.221 114.844 253.613V263.867C114.502 266.146 113.249 267.285 111.084 267.285C110.628 267.285 110.4 267.057 110.4 266.602C104.02 266.715 84.8796 267.627 52.9785 269.336H27.3438L22.2168 263.184C22.2168 260.905 22.1029 259.424 21.875 258.74Z" fill="#4F4F4F" fill-opacity="0.1"/>
</svg>
