<svg width="31" height="30" viewBox="0 0 31 30" fill="none" xmlns="http://www.w3.org/2000/svg">
<path fill-rule="evenodd" clip-rule="evenodd" d="M5.88223 8.58989L3.93356 10.5503C2.74513 10.5548 2.76007 10.2781 2.14669 11.385C-1.38174 17.753 1.17982 25.4291 7.49534 28.5332C11.209 30.3588 15.5186 30.1338 19.0973 28.153C19.9875 27.6602 20.2095 27.5343 19.9795 26.3299C22.6371 23.5985 21.6095 24.5446 22.7347 24.4093C23.7056 24.2928 24.2458 22.3627 24.6949 21.3962C27.0408 21.113 26.4897 22.0392 28.0784 20.4307C28.6519 19.8498 29.7582 18.8584 30.1749 18.2398C30.9247 17.1254 30.0913 15.8468 29.0079 15.708C27.6557 15.5348 27.1046 16.9313 26.3637 17.3633C26.7451 16.0096 29.3525 10.5468 29.6601 9.44245C29.9096 8.54659 28.8347 7.6572 28.2243 7.21176C27.9803 7.34365 24.9981 10.3642 22.3539 13.0557C22.0511 12.4132 21.6787 11.7946 21.2361 11.2123C21.6932 10.7419 22.1512 10.2781 22.6182 9.8416C22.4176 9.33942 20.9852 7.96129 20.4679 7.70796C20.3424 7.78959 19.7649 8.34452 19.0375 9.06619C18.46 8.64862 17.8496 8.29823 17.2163 8.01355C19.3323 5.91226 21.6533 3.59647 23.0041 2.10138C22.7437 1.77936 21.7982 0.701844 21.2451 0.636645C20.5924 0.559502 14.8315 3.23563 14.0588 3.57606L7.05074 6.5956C5.52824 7.43224 5.80157 7.42427 5.88273 8.58889L5.88223 8.58989ZM15.7869 14.6041C17.3652 16.1738 17.3652 18.7191 15.7869 20.2888C14.2087 21.8586 11.6496 21.8586 10.0713 20.2888C8.49258 18.7191 8.49258 16.1738 10.0713 14.6041C11.6496 13.0343 14.2087 13.0343 15.7869 14.6041ZM15.0311 15.3556C16.1922 16.5108 16.1922 18.3826 15.0311 19.5373C13.8701 20.692 11.9876 20.692 10.8266 19.5373C9.66557 18.3826 9.66557 16.5103 10.8266 15.3556C11.9876 14.201 13.8701 14.201 15.0311 15.3556Z" fill="#E0E0E0"/>
</svg>
