<svg width="31" height="31" viewBox="0 0 31 31" fill="none" xmlns="http://www.w3.org/2000/svg">
<path fill-rule="evenodd" clip-rule="evenodd" d="M5.85892 8.8967L3.91855 10.8575C2.73515 10.8619 2.75017 10.585 2.13957 11.6924C-1.37334 18.0603 1.17714 25.737 7.4649 28.8411C11.1624 30.6667 15.4536 30.4419 19.0169 28.4612C19.9033 27.9683 20.1242 27.8423 19.8955 26.6381C22.5419 23.9066 21.5185 24.8525 22.6389 24.7177C23.6057 24.6009 24.1431 22.6713 24.5904 21.7045C26.9262 21.4213 26.3776 22.3472 27.9594 20.7387C28.5302 20.1578 29.6322 19.1667 30.0465 18.5478C30.7928 17.4336 29.9637 16.1545 28.8845 16.0163C27.5382 15.8431 26.9892 17.2395 26.2516 17.6715C26.6315 16.3175 29.2276 10.855 29.5338 9.75059C29.782 8.85486 28.7119 7.96546 28.1042 7.51978C27.8615 7.65164 24.8918 10.6726 22.2589 13.3637C21.9575 12.7209 21.5868 12.1025 21.1458 11.5202C21.6008 11.0497 22.0569 10.586 22.5221 10.1496C22.3224 9.64744 20.8962 8.26955 20.3811 8.01606C20.2561 8.0978 19.6813 8.65295 18.9568 9.37449C18.3821 8.95704 17.7739 8.60624 17.1434 8.32161C19.25 6.22022 21.5616 3.90427 22.9059 2.4096C22.6466 2.088 21.705 1.00981 21.1545 0.944617C20.5047 0.867743 14.7684 3.54374 13.9993 3.88432L7.02148 6.90382C5.50564 7.74019 5.77799 7.7324 5.85843 8.89719L5.85892 8.8967ZM15.7211 14.9109C17.2927 16.481 17.2927 19.0261 15.7211 20.5957C14.1495 22.1658 11.6015 22.1658 10.0299 20.5957C8.45834 19.0261 8.45834 16.4805 10.0299 14.9109C11.6015 13.3413 14.1495 13.3413 15.7211 14.9109ZM14.9685 15.6626C16.1248 16.8177 16.1248 18.6899 14.9685 19.8444C13.8123 20.999 11.9383 20.999 10.7825 19.8444C9.62672 18.6899 9.62672 16.8177 10.7825 15.6626C11.9383 14.508 13.8127 14.508 14.9685 15.6626Z" stroke="#828282" stroke-width="0.705722" stroke-miterlimit="22.9256"/>
</svg>
