<svg width="84" height="84" viewBox="0 0 84 84" fill="none" xmlns="http://www.w3.org/2000/svg">
<path d="M37 2.88675C40.094 1.10042 43.906 1.10042 47 2.88675L73.3731 18.1132C76.4671 19.8996 78.3731 23.2008 78.3731 26.7735V57.2265C78.3731 60.7992 76.4671 64.1004 73.3731 65.8867L47 81.1132C43.906 82.8996 40.094 82.8996 37 81.1132L10.6269 65.8867C7.53292 64.1004 5.62693 60.7992 5.62693 57.2265L5.62693 26.7735C5.62693 23.2008 7.53292 19.8996 10.6269 18.1132L37 2.88675Z" fill="#339933"/>
<path d="M41.6416 61C41.4381 61 41.2347 60.9418 41.0506 60.8449L39.1906 59.7397C38.9097 59.5846 39.0453 59.5265 39.1422 59.4974C39.5103 59.3714 39.5878 59.3423 39.985 59.1096C40.0238 59.0902 40.0819 59.0999 40.1206 59.1193L41.5544 59.9724C41.6028 60.0015 41.6803 60.0015 41.7288 59.9724L47.3281 56.7345C47.3766 56.7055 47.4153 56.6473 47.4153 56.5794V50.1134C47.4153 50.0455 47.3862 49.9873 47.3281 49.9583L41.7288 46.7301C41.6803 46.701 41.6125 46.701 41.5544 46.7301L35.955 49.9583C35.8969 49.9873 35.8678 50.0552 35.8678 50.1134V56.5794C35.8678 56.6376 35.9066 56.6958 35.955 56.7248L37.4856 57.607C38.3187 58.0239 38.8322 57.5295 38.8322 57.0448V50.6562C38.8322 50.569 38.9 50.4914 38.9969 50.4914H39.7041C39.7912 50.4914 39.8687 50.5593 39.8687 50.6562V57.0448C39.8687 58.1596 39.2681 58.7897 38.2122 58.7897C37.8925 58.7897 37.6309 58.7897 36.9237 58.4407L35.4512 57.5973C35.0928 57.384 34.8603 56.9963 34.8603 56.5794V50.1134C34.8603 49.6965 35.0831 49.2991 35.4512 49.0955L41.0506 45.8576C41.4091 45.654 41.8741 45.654 42.2228 45.8576L47.8222 49.0955C48.1806 49.3088 48.4131 49.6965 48.4131 50.1134V56.5794C48.4131 56.9963 48.1903 57.3937 47.8222 57.5973L42.2228 60.8352C42.0581 60.9418 41.8547 61 41.6416 61ZM46.1656 54.6212C46.1656 53.4094 45.3519 53.0895 43.6275 52.8568C41.8837 52.6242 41.7094 52.5078 41.7094 52.1007C41.7094 51.7614 41.8547 51.3155 43.1431 51.3155C44.2959 51.3155 44.7222 51.5675 44.8966 52.343C44.9159 52.4206 44.9741 52.4691 45.0516 52.4691H45.7781C45.8266 52.4691 45.8653 52.4497 45.8944 52.4206C45.9234 52.3818 45.9428 52.343 45.9331 52.2946C45.8169 50.9568 44.9353 50.3363 43.1431 50.3363C41.5447 50.3363 40.5953 51.0149 40.5953 52.1395C40.5953 53.3706 41.5447 53.7002 43.0753 53.8553C44.9062 54.0395 45.0516 54.3013 45.0516 54.66C45.0516 55.2901 44.5478 55.5518 43.3659 55.5518C41.8837 55.5518 41.5544 55.1835 41.4478 54.4467C41.4381 54.3691 41.3703 54.311 41.2831 54.311H40.5566C40.4694 54.311 40.3919 54.3788 40.3919 54.4758C40.3919 55.4161 40.9053 56.5406 43.3563 56.5406C45.1484 56.5406 46.1656 55.8427 46.1656 54.6212ZM51.4453 49.7644C51.4453 50.3557 50.9609 50.8404 50.37 50.8404C49.7791 50.8404 49.2947 50.3557 49.2947 49.7644C49.2947 49.1536 49.7984 48.6883 50.37 48.6883C50.9512 48.6786 51.4453 49.1536 51.4453 49.7644ZM51.2709 49.7644C51.2709 49.2603 50.8641 48.8628 50.3603 48.8628C49.8662 48.8628 49.4594 49.2603 49.4594 49.7644C49.4594 50.2685 49.8662 50.6756 50.3603 50.6756C50.8641 50.6659 51.2709 50.2588 51.2709 49.7644ZM50.835 50.3654H50.5831C50.5734 50.3073 50.5347 49.997 50.5347 49.9873C50.5153 49.9195 50.4959 49.8807 50.4087 49.8807H50.1956V50.3654H49.9631V49.1536H50.3797C50.525 49.1536 50.8059 49.1536 50.8059 49.4736C50.8059 49.6965 50.6606 49.745 50.5734 49.7741C50.7381 49.7838 50.7478 49.8904 50.7769 50.0455C50.7866 50.1425 50.8059 50.3073 50.835 50.3654ZM50.5637 49.5123C50.5637 49.3475 50.4475 49.3475 50.3894 49.3475H50.1956V49.6868H50.3797C50.5347 49.6868 50.5637 49.5802 50.5637 49.5123ZM24.3009 35.698C24.3009 35.4363 24.1653 35.2036 23.9425 35.0776L18.0041 31.6555C17.9072 31.5974 17.7909 31.5683 17.6747 31.5586H17.6166C17.5003 31.5586 17.3938 31.5974 17.2872 31.6555L11.3584 35.0776C11.1356 35.2036 11 35.446 11 35.698L11.0097 44.9076C11.0097 45.0336 11.0775 45.1499 11.1841 45.2178C11.2906 45.2856 11.4262 45.2856 11.5425 45.2178L15.0687 43.1917C15.2916 43.056 15.4272 42.8233 15.4272 42.5713V38.267C15.4272 38.015 15.5628 37.7726 15.7856 37.6466L17.2872 36.7838C17.4034 36.7159 17.5197 36.6869 17.6456 36.6869C17.7716 36.6869 17.8975 36.7159 18.0041 36.7838L19.5056 37.6466C19.7284 37.7726 19.8641 38.015 19.8641 38.267V42.5713C19.8641 42.8233 19.9997 43.0657 20.2225 43.1917L23.7487 45.2178C23.8553 45.2856 24.0006 45.2856 24.1072 45.2178C24.2137 45.1596 24.2816 45.0336 24.2816 44.9076L24.3009 35.698ZM56.7734 25.6451V42.7458C56.7734 42.9978 56.6378 43.2402 56.415 43.3662L50.4766 46.7979C50.2537 46.924 49.9825 46.924 49.7597 46.7979L43.8212 43.3662C43.5984 43.2402 43.4628 42.9978 43.4628 42.7458V35.8822C43.4628 35.6302 43.5984 35.3878 43.8212 35.2618L49.7597 31.83C49.9825 31.704 50.2537 31.704 50.4766 31.83L51.9587 32.6831C52.1234 32.7801 52.3366 32.6541 52.3366 32.4699V23.3573C52.3366 23.0858 52.6272 22.9113 52.8694 23.0471L56.4053 25.0247C56.6281 25.141 56.7734 25.3834 56.7734 25.6451ZM52.3172 38.141C52.3172 38.0731 52.2784 38.015 52.23 37.9859L50.1956 36.8032C50.1375 36.7741 50.0697 36.7741 50.0116 36.8032L47.9772 37.9859C47.9191 38.015 47.89 38.0731 47.89 38.141V40.4967C47.89 40.5645 47.9287 40.6227 47.9772 40.6518L50.0116 41.8248C50.0697 41.8539 50.1375 41.8539 50.1859 41.8248L52.2203 40.6518C52.2784 40.6227 52.3075 40.5645 52.3075 40.4967V38.141H52.3172ZM72.6416 38.0731C72.8644 37.9471 73 37.7047 73 37.4527V35.795C73 35.5429 72.8644 35.3006 72.6416 35.1746L66.7419 31.7428C66.5191 31.6168 66.2478 31.6168 66.025 31.7428L60.0866 35.1746C59.8638 35.3006 59.7281 35.5429 59.7281 35.795V42.6585C59.7281 42.9202 59.8638 43.1529 60.0866 43.2789L65.9862 46.6428C66.1994 46.7689 66.4706 46.7689 66.6934 46.6428L70.2584 44.6555C70.5006 44.5198 70.5006 44.1708 70.2584 44.0351L64.2812 40.6033C64.165 40.5355 64.0972 40.4191 64.0972 40.2931V38.141C64.0972 38.015 64.165 37.8986 64.2812 37.8308L66.1413 36.7547C66.2478 36.6869 66.3931 36.6869 66.4997 36.7547L68.3597 37.8308C68.4662 37.8986 68.5437 38.015 68.5437 38.141V39.8278C68.5437 40.0992 68.8441 40.2737 69.0862 40.138L72.6416 38.0731ZM65.1531 38.4124C65.1144 38.4415 65.0853 38.4803 65.0853 38.5288V39.8472C65.0853 39.8956 65.1144 39.9441 65.1531 39.9635L66.2962 40.6227C66.335 40.6518 66.3931 40.6518 66.4319 40.6227L67.575 39.9635C67.6137 39.9344 67.6428 39.8956 67.6428 39.8472V38.5288C67.6428 38.4803 67.6137 38.4318 67.575 38.4124L66.4319 37.7532C66.3931 37.7241 66.335 37.7241 66.2962 37.7532L65.1531 38.4124ZM40.5275 42.6294V35.8047C40.5275 35.5526 40.3725 35.3103 40.1497 35.1842L34.2306 31.7719C34.0272 31.6555 33.7462 31.6362 33.5137 31.7719L27.5947 35.1842C27.3719 35.3103 27.2169 35.5429 27.2169 35.8047V42.6294C27.2169 42.9009 27.4009 43.1335 27.6044 43.2499L33.5331 46.6622C33.7656 46.7979 34.0369 46.7882 34.25 46.6622L40.1594 43.2499C40.3337 43.1529 40.4597 42.9881 40.5081 42.7942C40.5178 42.7458 40.5275 42.6876 40.5275 42.6294ZM33.3297 30.5213L33.2522 30.5698H33.3587L33.3297 30.5213ZM40.7116 43.1432L40.6728 43.0754V43.1626L40.7116 43.1432Z" fill="#F2F2F2"/>
</svg>
