<svg width="190" height="243" viewBox="0 0 190 243" fill="none" xmlns="http://www.w3.org/2000/svg">
<path fill-rule="evenodd" clip-rule="evenodd" d="M0.00542364 3.98017C-0.11932 12.6038 3.76943 17.0674 3.90502 29.4333L4.02434 130.378C14.7035 136.317 11.4981 139.712 10.0446 164.894C8.60189 189.962 4.44196 194.231 15.9563 197.328C24.5474 179.451 15.2079 149.616 23.4735 132.179C61.0485 137.451 71.3263 193.667 71.3154 226.859C71.31 235.223 69.1623 240.738 76.0937 243C83.3668 243 80.7417 234.176 80.6821 219.342L80.3892 132.515C70.2904 131.371 60.9075 129.489 51.709 127.422C47.1694 126.403 42.7437 125.426 37.7214 124.277C28.6694 122.194 28.1216 123.105 26.5704 115.984L34.6733 113.126C46.6975 112.328 94.6371 119.748 153.153 113.972C162.237 113.077 165.817 111.78 170.714 115.989C168.865 124.461 167.547 122.498 147.208 127.07C137.158 129.326 127.678 131.306 116.901 132.526C116.098 148.862 114.634 232.267 118.089 242.794C129.902 242.913 124.711 239.29 126.843 211.76C127.846 198.792 129.755 186.361 133.351 175.091C139.106 157.052 155.523 131.924 175.406 132.542C176.187 147.821 176.008 186.269 181.334 197.344C193.819 193.987 188.13 182.445 186.568 151.655C183.015 81.5762 191.84 108.054 96.7632 107.648L23.3922 103.488C15.3814 102.587 19.0099 104.762 14.5299 100.347C10.1368 92.9062 12.8757 36.3322 13.0927 22.6755C27.0314 15.5108 36.5119 18.3474 52.5225 17.1867C55.115 5.93811 53.9435 8.65535 32.2924 2.14156C19.5793 -1.68211 13.0167 0.0317613 0 4.00187L0.00542364 3.98017ZM77.3411 37.4874C59.8173 41.0996 49.2467 43.73 38.3994 53.8126C32.2598 59.5183 18.961 80.2583 22.4539 90.9862C26.5596 103.618 166.381 98.0532 172.618 93.9909C184.436 86.2893 160.084 20.4301 77.3411 37.4928V37.4874ZM23.3976 204.302C30.6381 210.605 53.0215 228.796 61.9271 231.388C60.6092 210.502 58.1848 171.999 44.143 162.774C35.937 164.612 34.1147 170.367 30.3561 179.316C26.7982 187.777 23.2945 194.925 23.3976 204.302ZM135.352 231.404C144.274 228.801 166.641 210.615 173.893 204.302C174.066 189.989 152.92 127.222 140.575 191.763C138.086 204.78 136.231 217.818 135.352 231.404Z" fill="#9B2E12" fill-opacity="0.1"/>
</svg>
