<svg width="253" height="243" viewBox="0 0 253 243" fill="none" xmlns="http://www.w3.org/2000/svg">
<path fill-rule="evenodd" clip-rule="evenodd" d="M113.854 88.5147C113.496 87.9829 113.111 86.4892 113.002 86.7909C111.101 91.9773 110.293 54.3037 110.139 51.5616C109.433 39.2539 110.354 24.1551 108.023 12.9866L90.2194 11.7984C46.7787 19.8325 31.3781 62.1304 33.3244 104.523C37.8695 104.349 78.9867 83.3284 102.64 103.172C110.599 109.852 106.027 103.576 108.558 112.715C90.027 108.302 78.436 98.1518 54.5299 109.822C39.8044 117.011 35.678 129.538 26.1163 146.915C14.7667 167.536 -16.2155 217.649 10.7006 239.073C18.4971 233.419 20.7565 227.071 28.1946 221.451C36.9529 214.835 40.2986 215.389 45.368 212.527C51.2408 209.207 47.7631 211.685 50.6788 208.513C46.4505 200.215 38.8087 195.444 32.5587 188.76C35.3235 174.547 51.5463 134.328 62.4848 126.456C93.2897 104.292 110.041 141.974 127.029 141.974C144.021 141.974 160.769 104.3 191.57 126.46C202.67 134.445 218.697 174.514 221.5 188.76C215.253 195.44 207.6 200.219 203.383 208.513C209.448 215.122 214.601 212.949 225.86 221.447C233.449 227.177 235.595 233.445 243.354 239.073C275.143 213.771 217.667 119.523 200.962 110.565C177.199 97.8274 165.027 108.064 145.493 112.711C147.993 103.632 144.708 109.814 150.162 104.228C170.873 83.0077 219.071 104.455 220.726 104.515C222.71 60.1313 202.542 9.90873 155.48 10.731C149.709 10.8328 156.842 10.1501 151.494 11.078C147.016 11.855 148.45 11.5005 146.032 12.979L143.418 68.0032C143.358 76.0335 144.206 82.5325 140.201 88.5109C139.846 87.9791 139.461 86.4854 139.352 86.7872L137.025 68.0636C136.979 59.9917 136.783 51.9161 136.647 43.8443C136.406 29.3452 135.818 15.4873 134.682 0.886392L119.391 0C118.105 17.0338 121.896 79.8771 113.862 88.5071L113.854 88.5147ZM74.6604 239.465C83.6978 244.18 170.244 244.173 179.394 239.477C177.086 222.997 177.286 242.166 158.456 218.792C151.343 209.962 144.93 202.991 138.688 194.984L115.351 194.87C111.681 199.668 90.97 226.052 85.8214 228.968C76.4897 234.253 76.2597 227.916 74.6604 239.465ZM43.1954 184C70.4283 208.559 62.8355 208.619 74.3435 220.497C84.8067 215.94 88.5371 206.971 96.1262 199.664C109.505 186.78 106.318 185.497 105.835 163.27C96.3298 164.635 89.2274 169.278 77.1046 167.762C66.6602 166.457 62.6394 160.35 52.395 160.641L43.1954 183.996V184ZM148.208 163.273C147.771 183.453 144.704 187.134 156.789 198.62C164.16 205.624 169.572 216.102 179.703 220.5C185.803 214.205 188.405 207.51 193.739 200.622C199.634 193.007 202.18 191.457 209.848 184.381L202.101 160.493C191.396 160.354 187.387 166.464 176.942 167.769C164.82 169.286 157.717 164.643 148.212 163.277L148.208 163.273ZM117.26 183.166L127.014 184.019L136.802 183.37L136.508 166.479C133.445 166.517 128.825 159.339 120.866 165.016C115.902 168.558 116.23 175.607 117.256 183.162L117.26 183.166Z" fill="#F9B18B" fill-opacity="0.1"/>
</svg>
