<svg width="32" height="40" viewBox="0 0 32 40" fill="none" xmlns="http://www.w3.org/2000/svg">
<path fill-rule="evenodd" clip-rule="evenodd" d="M0.00089278 0.655172C-0.0196412 2.07469 0.620482 2.80945 0.642802 4.84499L0.662443 21.4614C2.42033 22.439 1.89269 22.9979 1.65343 27.1431C1.41595 31.2695 0.731187 31.9721 2.62656 32.4819C4.04072 29.5393 2.50336 24.6281 3.86395 21.7578C10.0491 22.6256 11.741 31.8793 11.7392 37.3431C11.7383 38.7198 11.3847 39.6277 12.5257 40C13.7229 40 13.2908 38.5474 13.281 36.1057L13.2328 21.8132C11.5704 21.6248 10.0259 21.315 8.51177 20.9749C7.76451 20.807 7.036 20.6463 6.20929 20.457C4.71924 20.1142 4.62907 20.2642 4.37373 19.092L5.70754 18.6215C7.68684 18.4902 15.5781 19.7116 25.2103 18.7608C26.7057 18.6134 27.295 18.4001 28.1012 19.0929C27.7967 20.4874 27.5798 20.1642 24.2318 20.9168C22.5775 21.2882 21.0169 21.6141 19.243 21.815C19.1109 24.504 18.8698 38.2332 19.4385 39.9661C21.383 39.9857 20.5286 39.3893 20.8794 34.8576C21.0446 32.7229 21.3589 30.6767 21.9508 28.8215C22.898 25.8521 25.6005 21.7159 28.8734 21.8176C29.002 24.3326 28.9725 30.6615 29.8492 32.4846C31.9044 31.9319 30.9679 30.0321 30.7107 24.9638C30.126 13.4282 31.5785 17.7867 15.9281 17.7198L3.85056 17.035C2.53192 16.8868 3.12919 17.2448 2.39176 16.5181C1.66861 15.2932 2.11946 5.98061 2.15517 3.73259C4.44962 2.55322 6.0102 3.02015 8.64568 2.82909C9.07243 0.977466 8.87959 1.42475 5.31561 0.35252C3.22294 -0.27689 2.14267 0.0052282 0 0.658743L0.00089278 0.655172ZM12.731 6.17077C9.84647 6.76536 8.10644 7.19836 6.32088 8.85804C5.31026 9.79724 3.12116 13.2112 3.69611 14.9772C4.37194 17.0564 27.3878 16.1404 28.4145 15.4718C30.3599 14.204 26.3513 3.36298 12.731 6.17166V6.17077ZM3.85145 33.63C5.04332 34.6674 8.72782 37.6618 10.1938 38.0886C9.97682 34.6505 9.57775 28.3126 7.26634 26.794C5.91556 27.0966 5.61559 28.0439 4.99689 29.517C4.41123 30.9097 3.83449 32.0864 3.85145 33.63ZM22.2802 38.0912C23.7488 37.6627 27.4307 34.6692 28.6243 33.63C28.6529 31.274 25.1719 20.9418 23.14 31.5659C22.7302 33.7086 22.4249 35.8548 22.2802 38.0912Z" fill="#9B2E12"/>
</svg>
