<svg width="42" height="40" viewBox="0 0 42 40" fill="none" xmlns="http://www.w3.org/2000/svg">
<path fill-rule="evenodd" clip-rule="evenodd" d="M18.7414 14.5703C18.6824 14.4828 18.6191 14.2369 18.6011 14.2866C18.2881 15.1403 18.1553 8.93889 18.1298 8.4875C18.0137 6.46155 18.1652 3.97615 17.7815 2.13771L14.8509 1.94213C7.70019 3.26462 5.16511 10.2272 5.48549 17.2054C6.23366 17.1768 13.0019 13.7166 16.8955 16.9831C18.2056 18.0827 17.4531 17.0495 17.8697 18.5539C14.8193 17.8275 12.9113 16.1567 8.97611 18.0777C6.55217 19.2611 5.87292 21.3231 4.29898 24.1835C2.43073 27.5779 -2.66922 35.827 1.76142 39.3536C3.04479 38.4229 3.4167 37.3779 4.64109 36.4528C6.08278 35.3638 6.63351 35.455 7.46798 34.9838C8.4347 34.4374 7.86224 34.8453 8.34219 34.3232C7.64617 32.9572 6.38826 32.1718 5.35945 31.0716C5.81456 28.7321 8.48499 22.1116 10.2856 20.8158C15.3563 17.1675 18.1137 23.3701 20.9101 23.3701C23.7072 23.3701 26.464 17.1687 31.5341 20.8164C33.3614 22.1308 35.9995 28.7265 36.4608 31.0716C35.4327 32.1712 34.1729 32.9578 33.4787 34.3232C34.4771 35.411 35.3252 35.0533 37.1786 36.4522C38.4278 37.3953 38.7811 38.4272 40.0583 39.3536C45.2911 35.1887 35.83 19.6746 33.0801 18.2C29.1685 16.1033 27.1649 17.7884 23.9494 18.5533C24.361 17.0588 23.8202 18.0765 24.718 17.1569C28.1273 13.6638 36.061 17.1942 36.3336 17.2041C36.6602 9.89816 33.3403 1.63107 25.5935 1.76642C24.6435 1.78318 25.8176 1.6708 24.9372 1.82354C24.2002 1.95144 24.4362 1.89308 24.0382 2.13647L23.6079 11.1939C23.598 12.5158 23.7377 13.5856 23.0783 14.5697C23.0199 14.4822 22.9566 14.2363 22.9386 14.286L22.5555 11.2039C22.548 9.87518 22.5158 8.54587 22.4934 7.21717C22.4537 4.83049 22.3568 2.54936 22.1699 0.145908L19.6529 0C19.4411 2.80392 20.0651 13.1485 18.7426 14.5691L18.7414 14.5703ZM12.2898 39.4182C13.7774 40.1943 28.0236 40.193 29.5299 39.42C29.1499 36.7074 29.1828 39.8627 26.0834 36.0151C24.9124 34.5616 23.8569 33.4142 22.8293 32.0961L18.9879 32.0774C18.3838 32.8672 14.9745 37.2103 14.127 37.6902C12.5909 38.5601 12.553 37.517 12.2898 39.4182ZM7.11035 30.288C11.5931 34.3306 10.3433 34.3406 12.2376 36.2957C13.96 35.5457 14.574 34.0692 15.8232 32.8666C18.0255 30.7456 17.5009 30.5345 17.4214 26.8756C15.8568 27.1004 14.6876 27.8647 12.6921 27.6151C10.9729 27.4003 10.311 26.3951 8.62469 26.4429L7.11035 30.2874V30.288ZM24.3964 26.8763C24.3244 30.198 23.8196 30.804 25.8089 32.6946C27.0221 33.8476 27.9131 35.5724 29.5808 36.2963C30.5848 35.2601 31.0132 34.158 31.8911 33.0243C32.8616 31.7707 33.2807 31.5155 34.5429 30.3507L33.2676 26.4187C31.5056 26.3957 30.8456 27.4015 29.1263 27.6164C27.1308 27.866 25.9617 27.1016 24.397 26.8769L24.3964 26.8763ZM19.3021 30.1508L20.9077 30.2911L22.5189 30.1843L22.4704 27.404C21.9663 27.4102 21.2057 26.2287 19.8956 27.1631C19.0785 27.7461 19.1326 28.9066 19.3014 30.1502L19.3021 30.1508Z" fill="#F9B18B"/>
</svg>
