<svg width="179" height="165" viewBox="0 0 179 165" fill="none" xmlns="http://www.w3.org/2000/svg">
<path fill-rule="evenodd" clip-rule="evenodd" d="M42.7829 152.267C36.5646 152.472 29.2403 157.671 22.161 152.79C15.9692 148.522 16.5188 138.317 18.681 130.741C21.8034 119.811 29.9555 104.884 34.2302 93.4408C45.1934 64.0973 51.9085 41.3629 89.4669 41.3629C126.244 41.3629 133.896 63.7066 144.31 92.3978C150.005 108.093 170.421 140.923 157.581 152.138C151.465 157.482 142.578 152.472 136.154 152.273C132.913 167.531 178.557 173.554 178.944 144.29C179.169 127.34 164.68 101.285 159.442 85.8516C146.336 47.2436 137.936 -0.00662161 89.4669 6.9603e-07C41.8326 0.006623 32.919 45.535 19.8068 84.7291C14.3302 101.103 0.575621 125.625 0.016036 142.843C-0.993866 173.912 46.0444 167.664 42.7829 152.267V152.267ZM49.243 97.1095C43.369 73.756 73.378 86.0503 89.4669 86.0503C105.566 86.0503 135.568 73.7527 129.691 97.1095C117.635 102.662 105.019 96.3347 89.4669 96.3347C73.9177 96.3347 61.2989 102.662 49.243 97.1095V97.1095ZM52.7031 119.082C47.4748 118.933 43.7531 112.119 40.9121 109.622C36.7467 105.964 40.5413 107.334 35.1308 107.126C35.0216 114.705 46.1967 126.493 50.7396 128.936C59.3453 124.821 65.4147 101.563 70.5701 107.242C72.8681 111.212 59.7426 126.648 59.6135 134.35C59.5473 138.307 69.9774 160.144 71.9343 164.7C79.7056 164.641 81.3744 161.889 89.4636 161.889C97.556 161.889 99.2182 164.647 106.98 164.687C108.817 160.455 119.002 138.949 119.274 135.529C119.949 127.039 101.205 104.192 110.595 106.656C112.532 107.162 110.532 105.371 113.267 108.675L122.171 122.893C124.727 126.88 124.227 127.032 128.188 128.943C132.727 126.499 143.916 114.718 143.78 107.146C134.936 107.44 134.472 118.861 126.217 119.079C125.505 112.755 132.399 110.708 135.565 104.225C138.982 97.2221 137.975 87.4145 133.36 81.7392C124.174 70.4514 104.874 79.0704 89.4603 79.0704C74.0501 79.0704 54.7461 70.4481 45.5676 81.7425C31.4389 99.126 53.4813 112.255 52.6998 119.082H52.7031ZM51.9945 68.2363C55.3587 69.9879 83.4406 73.0242 89.404 72.9944C95.576 72.9646 123.357 70.1005 126.936 68.2363C123.208 56.2664 108.271 65.9714 89.4636 65.9714C79.6394 65.9714 54.6435 56.6638 51.9912 68.2363H51.9945ZM59.5837 56.6141C71.239 60.8325 107.711 60.8888 119.324 56.6042C113.191 47.9356 100.957 53.1738 89.4669 53.1672C79.0533 53.1639 64.3518 48.1376 59.5837 56.6141Z" fill="#ADF7B6" fill-opacity="0.1"/>
</svg>
