<svg width="37" height="40" viewBox="0 0 37 40" fill="none" xmlns="http://www.w3.org/2000/svg">
<path fill-rule="evenodd" clip-rule="evenodd" d="M18.9394 34.9685C16.9568 34.9658 16.0985 35.2453 14.989 34.5241L15.0943 33.7077C16.1856 33.0155 20.9079 33.0338 21.3698 33.7077C21.8067 35.3237 20.369 34.9705 18.9394 34.9685ZM14.9525 29.7377C15.3631 28.4972 16.4186 27.649 17.316 26.6347L19.1467 26.6618C20.0428 27.649 21.0997 28.5019 21.5116 29.739C20.1266 29.8356 19.8301 28.9746 18.231 28.3493C16.6333 28.9746 16.3335 29.837 14.9518 29.7384L14.9525 29.7377ZM11.1668 31.3395C11.495 33.2073 12.1224 35.1387 12.2243 36.8579C10.1222 36.4703 10.1586 34.8712 9.50967 32.7333C8.97619 30.9769 8.413 29.1954 8.13883 27.4539C10.79 28.1339 10.6853 28.6012 11.1668 31.3395ZM24.2397 36.8579C24.3444 35.0934 25.0109 32.9777 25.3513 31.0194C25.799 28.4425 25.851 28.0886 28.3252 27.4539C28.0605 29.2231 27.4264 31.1997 26.87 33.0047C26.2318 35.0752 26.3055 36.4764 24.2397 36.8573V36.8579ZM5.82462 18.0775C11.2256 12.0613 15.9843 16.1252 18.2317 17.2847C20.5182 16.1002 25.252 12.0769 30.6395 18.0775C30.3221 19.6286 30.1884 18.6359 29.4928 19.9035C28.7291 21.2946 29.455 24.6879 26.2751 26.133C21.8715 28.1346 20.0854 24.2206 18.2317 22.6343C17.3329 23.4035 14.442 28.4209 9.95536 26.0128C8.56899 25.2693 7.75797 23.9066 7.46287 22.188C6.62821 17.3259 6.3169 20.4856 5.82462 18.0775ZM25.4816 9.35748C26.9125 9.94971 28.9708 12.5962 28.8614 14.3749C27.5818 13.9191 26.9105 13.5503 26.477 12.5698C26.1758 11.8891 25.641 10.1651 25.4823 9.35748H25.4816ZM7.60265 14.3749C7.49326 12.5962 9.54951 9.95106 10.9845 9.35748C10.8589 9.99698 10.1519 12.3206 9.87838 12.8244C9.49481 13.5301 8.69662 13.9852 7.60265 14.3749ZM15.5508 5.14098C6.44453 7.15334 3.505 14.1649 5.51196 24.8547C6.03531 27.6416 7.83293 35.0495 8.91744 36.7877C10.7441 39.7131 16.8318 40.4262 21.1699 39.7799C27.105 38.896 27.5777 37.5717 29.0903 32.4098C30.2397 28.4884 31.3789 24.0004 31.5977 19.4882C32.0434 10.2874 24.9144 3.07257 15.5508 5.14165V5.14098ZM5.68011 34.2635C6.18252 33.5949 6.03869 34.1622 6.04679 33.0979C6.05489 32.0465 1.42241 21.2898 3.93043 13.5125C8.36303 -0.235674 27.9363 -0.106694 32.458 13.2593C34.2529 18.5637 32.6586 26.3066 30.7907 31.69C30.7495 31.8095 30.4551 32.6401 30.4396 32.8062C30.2275 35.0894 30.2215 33.5146 30.784 34.2642C31.8489 33.6665 31.7429 33.3424 32.1656 32.0688C33.5797 27.8118 34.1233 33.3829 35.9459 24.6062C36.4051 22.3953 37.1756 20.6598 35.8588 18.9452C33.8072 16.2738 36.2565 10.5939 28.1024 4.71352C26.6242 3.64724 19.6322 0.00202737 18.2317 1.49874e-06C16.8325 -0.00269966 9.84259 3.64656 8.36235 4.71352C0.237954 10.5656 2.63861 16.3015 0.605986 18.9446C-1.20041 21.2932 1.51357 29.2596 2.49072 29.9639C3.69138 30.8296 3.37062 29.4257 4.21743 31.8014C4.69554 33.1425 4.52536 33.6159 5.68078 34.2642L5.68011 34.2635ZM11.8779 20.4464C12.7693 19.9764 12.0069 19.6867 13.6843 20.1722C14.8208 23.3468 10.6759 22.8714 11.8779 20.4464ZM9.06533 21.9131C9.94388 26.6631 17.5105 25.3287 16.4354 20.2708C15.4576 15.6687 8.13883 16.9032 9.06533 21.9131ZM23.1552 20.1722C24.628 19.268 25.6248 21.379 24.3485 22.1556C23.0533 22.9429 21.5075 21.1838 23.1552 20.1722ZM27.1286 22.61C29.2146 18.0836 22.276 15.269 20.3082 19.4625C18.2027 23.9511 24.9353 27.3681 27.1286 22.61Z" fill="#0D6918"/>
</svg>
