<svg width="155" height="170" viewBox="0 0 155 170" fill="none" xmlns="http://www.w3.org/2000/svg">
<path fill-rule="evenodd" clip-rule="evenodd" d="M80.2272 148.126C71.8287 148.115 68.193 149.299 63.4932 146.244L63.9394 142.786C68.562 139.854 88.5656 139.931 90.5222 142.786C92.373 149.631 86.2829 148.135 80.2272 148.126ZM63.3387 125.969C65.0779 120.714 69.5489 117.121 73.3505 112.825L81.1054 112.939C84.9013 117.121 89.378 120.734 91.1229 125.974C85.256 126.383 84.0002 122.736 77.2265 120.087C70.4585 122.736 69.1885 126.389 63.3358 125.972L63.3387 125.969ZM47.3026 132.754C48.6928 140.666 51.3503 148.847 51.7822 156.13C42.8774 154.488 43.0319 147.714 40.2829 138.658C38.0231 131.218 35.6374 123.672 34.4761 116.294C45.7065 119.175 45.2631 121.154 47.3026 132.754ZM102.679 156.13C103.123 148.655 105.946 139.693 107.388 131.398C109.284 120.482 109.505 118.983 119.986 116.294C118.864 123.789 116.178 132.162 113.821 139.808C111.118 148.578 111.43 154.514 102.679 156.127V156.13ZM24.673 76.5761C47.5515 51.0917 67.7096 68.3063 77.2294 73.2178C86.9151 68.2005 106.967 51.1575 129.789 76.5761C128.444 83.1467 127.878 78.9417 124.931 84.3109C121.696 90.2036 124.771 104.578 111.301 110.699C92.6476 119.178 85.0815 102.598 77.2294 95.8789C73.422 99.137 61.1761 120.391 42.1708 110.19C36.2982 107.041 32.8627 101.268 31.6127 93.9881C28.0771 73.3923 26.7584 86.7767 24.673 76.5761ZM107.94 39.6382C114.001 42.1469 122.72 53.3573 122.257 60.8919C116.836 58.961 113.993 57.3992 112.156 53.2457C110.881 50.3623 108.615 43.0594 107.943 39.6382H107.94ZM32.2048 60.8919C31.7414 53.3573 40.4517 42.1526 46.5303 39.6382C45.9982 42.3471 43.0033 52.1902 41.8447 54.3241C40.22 57.3134 36.8388 59.2414 32.2048 60.8919ZM65.8731 21.7771C27.299 30.3015 14.8472 60.0023 23.3486 105.284C25.5655 117.09 33.1802 148.47 37.7742 155.833C45.5119 168.224 71.2995 171.245 89.6755 168.507C114.817 164.763 116.819 159.154 123.227 137.288C128.095 120.677 132.921 101.666 133.848 82.5517C135.736 43.5772 105.537 13.0154 65.8731 21.78V21.7771ZM24.0609 145.14C26.1891 142.308 25.5798 144.711 25.6142 140.203C25.6485 135.749 6.02532 90.1836 16.6493 57.239C35.4257 -0.998314 118.338 -0.451954 137.492 56.1663C145.095 78.6357 138.342 111.434 130.429 134.238C130.255 134.745 129.008 138.263 128.942 138.967C128.044 148.638 128.018 141.968 130.401 145.143C134.912 142.611 134.463 141.238 136.253 135.843C142.243 117.81 144.546 141.41 152.267 104.232C154.212 94.8663 157.476 87.5147 151.898 80.2519C143.207 68.9357 153.582 44.8758 119.042 19.9664C112.78 15.4497 83.1621 0.00858791 77.2294 6.34864e-06C71.3024 -0.0114357 41.6931 15.4468 35.4229 19.9664C1.00797 44.7557 11.1771 69.0529 2.56695 80.249C-5.08494 90.1979 6.41149 123.943 10.5507 126.927C15.6367 130.594 14.2779 124.647 17.865 134.71C19.8903 140.391 19.1694 142.397 24.0638 145.143L24.0609 145.14ZM50.3147 86.6108C54.0906 84.6199 50.8611 83.3927 57.9666 85.4494C62.7809 98.8967 45.223 96.8829 50.3147 86.6108ZM38.4007 92.8239C42.1222 112.945 74.1743 107.292 69.6204 85.8671C65.4784 66.3726 34.476 71.6017 38.4007 92.8239ZM98.0854 85.4494C104.324 81.6192 108.546 90.5612 103.14 93.8508C97.6535 97.1861 91.1058 89.7345 98.0854 85.4494ZM114.917 95.7759C123.753 76.6019 94.361 64.6792 86.0255 82.443C77.1064 101.457 105.626 115.931 114.917 95.7759Z" fill="#0D6918" fill-opacity="0.1"/>
</svg>
