<svg width="44" height="40" viewBox="0 0 44 40" fill="none" xmlns="http://www.w3.org/2000/svg">
<path fill-rule="evenodd" clip-rule="evenodd" d="M10.3716 36.9132C8.86414 36.9629 7.08855 38.2232 5.37237 37.04C3.87132 36.0053 4.00457 33.5314 4.52873 31.6948C5.28568 29.045 7.26194 25.4265 8.29823 22.6523C10.956 15.5387 12.5839 10.0274 21.6889 10.0274C30.6046 10.0274 32.4596 15.444 34.9841 22.3995C36.3648 26.2043 41.3143 34.1631 38.2014 36.8818C36.7188 38.1774 34.5643 36.9629 33.0071 36.9148C32.2212 40.6136 43.2865 42.0737 43.3804 34.9794C43.435 30.8704 39.9224 24.5539 38.6525 20.8125C35.4754 11.453 33.4389 -0.00160524 21.6889 1.68735e-07C10.1412 0.00160558 7.98036 11.0388 4.80165 20.5404C3.47398 24.5098 0.139545 30.4546 0.00388752 34.6287C-0.240937 42.1604 11.1623 40.6457 10.3716 36.9132ZM11.9377 23.5417C10.5137 17.8802 17.7886 20.8607 21.6889 20.8607C25.5917 20.8607 32.865 17.8794 31.4402 23.5417C28.5175 24.8878 25.4592 23.3539 21.6889 23.3539C17.9194 23.3539 14.8603 24.8878 11.9377 23.5417ZM12.7765 28.8685C11.509 28.8323 10.6068 27.1804 9.91809 26.5751C8.90828 25.6881 9.82818 26.0205 8.51657 25.9699C8.49008 27.8073 11.1992 30.6649 12.3005 31.2573C14.3867 30.2595 15.8581 24.6213 17.1079 25.998C17.665 26.9604 14.4831 30.7026 14.4518 32.5697C14.4357 33.5289 16.9642 38.8228 17.4386 39.9273C19.3226 39.9129 19.7271 39.2458 21.6881 39.2458C23.6499 39.2458 24.0529 39.9145 25.9344 39.9241C26.3799 38.8982 28.8491 33.6847 28.9149 32.8555C29.0786 30.7973 24.5345 25.2587 26.811 25.8559C27.2806 25.9787 26.7957 25.5445 27.4588 26.3456L29.6173 29.7924C30.2369 30.7588 30.1157 30.7957 31.0758 31.2589C32.1763 30.6665 34.8886 27.8105 34.8557 25.9747C32.7117 26.0461 32.5993 28.8147 30.5982 28.8676C30.4256 27.3345 32.0968 26.8384 32.8642 25.2667C33.6926 23.569 33.4486 21.1914 32.3296 19.8156C30.1029 17.0791 25.4239 19.1686 21.6873 19.1686C17.9515 19.1686 13.2718 17.0783 11.0467 19.8164C7.62155 24.0306 12.9652 27.2133 12.7757 28.8685H12.7765ZM12.6047 16.5421C13.4203 16.9668 20.228 17.7028 21.6737 17.6956C23.1699 17.6884 29.9046 16.994 30.7723 16.5421C29.8685 13.6404 26.2475 15.9931 21.6881 15.9931C19.3065 15.9931 13.2469 13.7367 12.6039 16.5421H12.6047ZM14.4445 13.7246C17.2701 14.7473 26.1118 14.7609 28.9269 13.7222C27.4403 11.6207 24.4743 12.8906 21.6889 12.889C19.1644 12.8882 15.6004 11.6697 14.4445 13.7246Z" fill="#ADF7B6"/>
</svg>
