<svg width="54" height="20" viewBox="0 0 54 20" fill="none" xmlns="http://www.w3.org/2000/svg">
<path fill-rule="evenodd" clip-rule="evenodd" d="M34.2886 13.9044L37.4616 14.7846C37.8727 14.9798 37.9213 15.0706 38.1316 15.234C37.0522 17.5538 34.1787 17.0909 34.2878 13.9051L34.2886 13.9044ZM15.7044 14.9336C15.7682 14.8994 15.8614 14.8412 15.9339 14.8062L19.1117 13.9163C19.2176 17.1021 16.3242 17.5562 15.2718 15.234L15.7036 14.9344L15.7044 14.9336ZM24.5663 4.1526L28.8523 4.16057L29.9007 7.46506L23.4199 7.40451L24.5663 4.15181V4.1526ZM34.2918 6.08368C34.1699 2.90346 37.0633 2.44937 38.1268 4.76443C37.2091 5.45353 35.4628 5.92913 34.2918 6.08368ZM15.2718 4.76443C16.2358 2.46929 19.2208 2.83017 19.1125 6.08208C17.904 5.91877 16.2788 5.49416 15.2718 4.76443ZM26.5261 2.46371C24.3703 2.46371 23.6231 2.23508 22.8822 3.81244C22.2075 5.24959 22.5954 6.50351 21.1288 6.85005C20.4007 5.5786 21.4658 2.73457 18.268 1.87101C15.2264 1.04967 14.5604 2.97994 13.3615 4.30158C12.1665 4.0347 5.10186 1.86782 4.31079 1.30858C3.18672 0.513524 1.53766 -0.999307 0.408816 0.966019C-0.757474 2.99747 0.741018 4.14384 2.76848 4.02992C5.09867 3.89927 9.43323 5.77378 11.9212 6.56087L20.086 9.19617C21.0818 9.72754 20.4214 9.26628 20.8794 9.82871C20.6054 10.7799 20.8261 10.3688 20.1011 10.8173C20.074 10.8341 18.8958 11.2252 18.836 11.2428C15.1476 12.3421 5.0923 16.0991 2.76769 15.9645C0.741018 15.8474 -0.755084 17.0041 0.408816 19.03C1.53209 20.9857 3.19071 19.4833 4.31318 18.6922C5.17754 18.0828 12.1386 15.9701 13.3607 15.6968C14.5684 17.024 15.2113 18.9543 18.2641 18.1258C19.4025 17.8167 20.1202 17.1539 20.4819 16.2744C20.8077 15.4809 20.6867 15.406 20.803 14.5616L21.1272 13.1444C23.1985 13.3634 21.2786 13.13 23.5968 16.6114L29.8083 16.4544C32.0357 13.5459 30.1405 13.3778 32.2707 13.1292C32.3169 13.2105 32.3456 13.3276 32.3631 13.3937C32.3806 13.4606 32.4268 13.5809 32.4459 13.6654C32.7789 15.1057 32.3838 17.3849 35.1298 18.1266C38.1268 18.936 38.8637 17.0511 40.0372 15.688C41.3556 15.9844 48.3319 18.0923 49.1094 18.6587C49.1182 18.6651 51.6292 21.408 52.9891 19.0308C54.2876 16.7619 52.4553 15.9549 50.5187 15.9565C48.1741 15.9581 43.4699 14.0103 40.9772 13.2551C39.3983 12.7763 37.9476 12.2593 36.3925 11.7789C33.2314 10.8022 32.955 11.2053 32.5288 9.82951C33.4808 8.68632 48.8999 3.93512 50.631 4.02992C52.6577 4.14145 54.1538 2.99986 52.9891 0.966019C51.865 -0.996917 50.2112 0.511134 49.0895 1.30858C48.2777 1.88615 41.3102 4.00682 40.038 4.30556C38.8414 2.97755 38.1706 1.05206 35.1314 1.87101C32.822 2.49399 32.7758 4.14065 32.5965 5.43441C32.528 5.92992 32.5376 5.89009 32.4467 6.32745L32.2707 6.85881C31.2159 6.58716 31.5489 6.9337 31.0327 5.32527C30.0855 2.37449 30.1532 2.46292 26.5245 2.46371H26.5261Z" fill="#684F13"/>
</svg>
