<svg width="38" height="40" viewBox="0 0 38 40" fill="none" xmlns="http://www.w3.org/2000/svg">
<path fill-rule="evenodd" clip-rule="evenodd" d="M19.5205 25.9773C19.2861 23.7985 19.1019 23.9394 20.6678 23.3104C21.5906 23.6848 21.7859 23.9465 22.2357 24.816C21.5051 25.5416 20.8942 25.9028 19.5205 25.9773ZM15.1217 24.816C15.6158 24.0592 15.9399 23.5781 16.9281 23.3608L17.8379 23.6999L17.7997 26.0015C16.597 25.8575 15.798 25.5637 15.1217 24.816ZM22.4642 20.7271L24.7104 20.8076C24.5745 22.2457 24.2816 22.7781 23.4323 23.556L22.0183 21.9941L22.4642 20.7271ZM14.9214 20.8549C15.5504 22.5345 15.0181 22.9965 13.7752 23.5047C12.961 22.5557 12.8282 22.139 12.7165 20.7201L14.9214 20.8549ZM17.9405 17.8972C20.7211 16.5658 22.2277 21.1397 19.5054 22.1169C17.0982 22.9804 14.696 19.451 17.9405 17.8972ZM23.4886 16.4178C24.2827 17.1394 24.5725 17.6708 24.7114 19.123L23.4886 19.1864L22.4813 19.1602L21.9519 17.8509L23.4886 16.4168V16.4178ZM12.7155 19.1652C12.8292 17.7795 12.961 17.3618 13.7752 16.4128C15.013 16.92 15.5484 17.387 14.9235 19.1169L12.7155 19.1652ZM20.6688 16.608C19.1109 15.9519 19.28 16.1773 19.5215 13.9412C20.8942 14.0156 21.5051 14.3759 22.2357 15.1025C21.7879 15.972 21.5916 16.2337 20.6688 16.608ZM15.1207 15.1025C15.796 14.3588 16.594 14.0609 17.8822 13.919L17.7272 16.2015L16.9573 16.6241C15.9389 16.3414 15.6168 15.8593 15.1207 15.1025ZM4.49349 23.8821L4.83465 21.4557L7.19457 21.3933C8.7011 21.4909 7.80946 21.4899 8.16572 21.7747C11.1244 22.6925 13.1835 29.8216 20.6255 28.2356C26.8771 26.9032 25.449 21.2635 32.4191 21.5362C33.0411 24.3832 32.1464 23.4081 33.987 25.2799C36.2685 27.5996 33.6368 36.0581 35.2893 40L36.8813 39.7806C37.5304 38.4411 37.5304 1.47835 36.8884 0.0563565L35.2842 0C33.6408 3.76582 36.2665 12.3219 33.988 14.6406C32.1444 16.5175 33.0431 15.5312 32.4191 18.3843C28.0998 18.5534 28.2326 17.4796 26.0901 15.3239C24.7033 13.9281 23.1243 12.1237 20.3447 11.6296C12.9993 10.3253 11.1536 17.1988 8.16974 18.1488C7.88595 18.339 8.05904 18.3531 7.49346 18.4859L4.78533 18.4074L4.49449 16.0374C2.98897 12.9559 2.49787 17.2803 2.49787 8.20993C2.49787 2.20696 3.37441 -0.239515 0.548536 0.0251591C-0.171015 1.61522 -0.190136 38.2721 0.535454 39.9819L2.11142 39.8007C2.95576 38.0748 2.49887 33.038 2.49787 30.7696C2.49384 23.088 3.11477 26.7069 4.49449 23.8821H4.49349Z" fill="#FFEE93"/>
</svg>
