<svg width="37" height="40" viewBox="0 0 37 40" fill="none" xmlns="http://www.w3.org/2000/svg">
<path fill-rule="evenodd" clip-rule="evenodd" d="M16.7518 29.6525C15.8882 24.4464 19.5948 25.1779 19.9774 26.9331C21.0516 31.8618 17.0424 31.405 16.7518 29.6525ZM26.6882 15.8262C28.0852 16.5469 27.5192 18.6159 27.5192 22.023C27.5192 23.1857 27.5265 24.3426 27.5366 25.5042C27.5518 27.2757 27.8525 27.6234 26.6882 28.2209C25.2904 27.5065 25.8568 25.4366 25.8568 22.023C25.8568 18.6159 25.2908 16.5469 26.6882 15.8262ZM10.0419 15.8262C11.2046 16.426 10.9055 16.7718 10.8907 18.5413V25.5042C10.9059 27.2757 11.2069 27.6234 10.0422 28.2209C8.87795 27.6258 9.17864 27.2777 9.19379 25.5042V18.5413C9.17902 16.7714 8.8795 16.4256 10.0422 15.8262H10.0419ZM16.9779 24.0994C15.1027 24.0994 15.0188 24.2921 13.825 23.7436C11.4424 22.6484 11.9602 20.7907 16.9779 20.7907C19.6488 20.7907 18.0707 21.8785 20.3989 21.2697C21.7917 20.9053 23.0958 20.943 24.1125 22.023C23.9769 24.9137 20.7191 23.2094 19.209 23.5101C18.183 23.7145 19.0462 24.0998 16.9783 24.0998L16.9779 24.0994ZM23.5904 16.5212C24.0838 16.9245 23.9761 16.3549 24.1222 17.2698C24.4318 19.2092 19.9658 19.4465 18.3283 18.863C15.6497 17.9077 17.6609 18.5798 15.5343 18.8358C14.4279 18.9691 13.2613 18.5483 12.6179 17.8611C12.684 16.4676 13.114 16.2337 14.7822 16.034C17.1345 15.7528 15.3913 17.0092 17.751 16.2943C18.7755 15.9839 17.5443 15.9987 19.399 15.7823C20.876 15.6102 22.5057 15.6339 23.5908 16.5212H23.5904ZM7.51513 16.1273V27.2248C7.51513 29.9458 9.18757 32.4372 11.7761 32.4372H24.7811C27.5432 32.4372 29.2157 29.9454 29.2157 27.2248V16.1273C29.2157 14.3356 29.1357 14.125 27.382 14.125H9.3484C7.59594 14.125 7.51474 14.3364 7.51474 16.1273H7.51513ZM21.7618 9.87379C18.3567 5.69016 26.6979 5.68977 23.2924 9.90759L21.7618 9.87379ZM15.863 3.51346C19.0932 2.32508 20.289 7.26859 17.5463 8.11122C14.4135 9.07351 12.7488 4.65911 15.863 3.51346ZM15.8676 0.332911C11.5247 1.41369 8.5252 4.5313 7.69345 8.93481C6.82284 13.5434 8.5015 12.4669 12.4699 12.4588L25.3028 12.4623C26.5145 12.4747 28.4853 12.8158 29.0416 11.8749C29.9962 10.2596 28.1675 6.05923 27.6174 5.16182C25.6501 1.95485 21.2816 -1.01437 15.868 0.332911H15.8676ZM30.197 39.6794C40.0071 41.0558 35.9863 37.6383 35.3526 36.277C34.5119 34.4705 35.0135 31.1563 35.0135 28.9587L35.0457 17.4726C34.9439 15.7248 34.6557 15.7788 32.9312 15.7788C29.9616 15.7788 30.8357 17.278 30.8477 20.2884L30.8574 33.4744C30.866 36.1787 29.859 37.6806 30.197 39.6798V39.6794ZM2.06581 39.9136L6.54158 39.7361C6.88578 37.5967 5.87765 36.4172 5.87066 33.8256L5.88231 20.6353C5.88931 17.5565 6.83061 15.7784 3.79924 15.7784C2.23402 15.7784 1.88943 15.5919 1.69946 17.1385C1.59535 17.987 1.71539 20.0056 1.71656 20.9822C1.71928 23.479 2.04522 34.5412 1.48657 36.0404C0.992803 37.3648 -1.91387 39.914 2.06542 39.914L2.06581 39.9136ZM15.3564 39.5974H21.3733C21.8927 38.2653 21.3974 37.5745 21.0524 36.0447C20.5609 33.8668 21.1553 34.0719 18.0191 34.0719C16.3295 34.0719 15.9632 33.3828 15.2278 37.7163L15.2728 39.2831C15.2868 39.3674 15.3171 39.496 15.3564 39.597V39.5974Z" fill="#14667A"/>
</svg>
