<svg width="108" height="107" viewBox="0 0 108 107" fill="none" xmlns="http://www.w3.org/2000/svg">
<path fill-rule="evenodd" clip-rule="evenodd" d="M71.9557 88.7431C81.1696 83.2415 86.5412 97.1486 78.8936 101.056C71.3626 104.904 62.8887 94.1573 71.9557 88.7431ZM24.7494 96.9334C22.2547 86.1577 37.227 84.1732 38.8112 93.3288C40.4684 102.9 26.569 104.797 24.7494 96.9334ZM28.1847 75.9605C29.5704 69.1022 46.4902 55.9373 53.5559 55.9384C60.4994 55.9384 77.5538 69.1078 78.925 75.9605C69.8759 74.2148 66.0639 65.6322 53.5559 65.6322C41.0435 65.6322 37.2281 74.2249 28.1847 75.9605V75.9605ZM19.0134 41.6859C8.03586 42.5335 8.70521 50.9144 7.0638 60.5409C-3.72199 68.0382 -0.333774 77.2431 5.21048 80.6549C16.7295 87.7453 7.91478 87.7038 18.4505 99.6892C23.3232 105.232 32.508 110.491 39.9706 103.607C45.1785 98.8035 46.3882 87.1185 53.5559 85.106C60.7853 87.1253 61.9491 98.8181 67.1469 103.601C77.1053 112.763 89.6805 101.807 94.7068 89.6423C98.0995 81.4308 95.1563 84.8403 101.885 80.5899C107.415 77.0963 110.818 68.0517 100.05 60.5397C98.4145 50.911 99.0726 42.5324 88.0996 41.6848C87.8339 42.4819 87.1859 61.3425 71.7124 50.4367C65.7051 46.2032 61.2495 36.4578 53.5559 36.4578C43.083 36.4578 36.2886 57.9038 23.8345 52.8372C19.6693 51.142 20.2803 45.4811 19.0123 41.6837L19.0134 41.6859ZM12.8211 33.5439C21.4486 33.9262 40.4358 25.986 75.2856 30.7039C80.359 31.3912 90.1974 33.7255 94.2919 33.5439C96.3941 22.0742 90.2355 11.9028 84.4356 7.4528C71.4153 -2.54032 36.0823 -2.28469 23.2526 7.02338C17.1589 11.4442 10.6482 21.6885 12.8211 33.5439V33.5439Z" fill="#A7D3DE" fill-opacity="0.1"/>
</svg>
