<svg width="41" height="40" viewBox="0 0 41 40" fill="none" xmlns="http://www.w3.org/2000/svg">
<path fill-rule="evenodd" clip-rule="evenodd" d="M26.8993 33.175C30.3438 31.1183 32.3518 36.3172 29.4929 37.7779C26.6776 39.2164 23.5098 35.199 26.8993 33.175ZM9.2521 36.2368C8.31952 32.2085 13.9166 31.4666 14.5089 34.8893C15.1284 38.4674 9.93235 39.1766 9.2521 36.2368ZM10.5363 28.3965C11.0544 25.8326 17.3795 20.9111 20.0209 20.9116C22.6166 20.9116 28.9921 25.8347 29.5047 28.3965C26.1218 27.7439 24.6968 24.5354 20.0209 24.5354C15.3434 24.5354 13.9171 27.7476 10.5363 28.3965ZM7.1078 15.5835C3.00406 15.9004 3.25428 19.0334 2.64067 22.6321C-1.3914 25.4348 -0.124775 28.8759 1.94784 30.1514C6.25403 32.802 2.9588 32.7865 6.8974 37.267C8.71896 39.3392 12.1525 41.3049 14.9423 38.7315C16.8891 36.9359 17.3414 32.5677 20.0209 31.8153C22.7235 32.5702 23.1586 36.9413 25.1017 38.7294C28.8244 42.1545 33.5254 38.0588 35.4044 33.5111C36.6727 30.4414 35.5725 31.716 38.0877 30.1271C40.1553 28.821 41.4274 25.4399 37.402 22.6317C36.7905 19.0322 37.0365 15.9 32.9344 15.5831C32.8351 15.8811 32.5928 22.9318 26.8084 18.8549C24.5626 17.2722 22.897 13.6291 20.0209 13.6291C16.1058 13.6291 13.5658 21.6463 8.91008 19.7522C7.353 19.1185 7.58143 17.0023 7.10739 15.5827L7.1078 15.5835ZM4.79293 12.5398C8.01816 12.6827 15.1162 9.71438 28.1441 11.4781C30.0407 11.735 33.7186 12.6077 35.2493 12.5398C36.0352 8.25202 33.7329 4.44964 31.5647 2.78609C26.6973 -0.949651 13.4887 -0.854088 8.69255 2.62556C6.41456 4.27821 3.98064 8.10784 4.79293 12.5398Z" fill="#A7D3DE"/>
</svg>
