<svg width="100" height="108" viewBox="0 0 100 108" fill="none" xmlns="http://www.w3.org/2000/svg">
<path fill-rule="evenodd" clip-rule="evenodd" d="M45.2299 80.0617C42.8982 66.0052 52.9059 67.9803 53.9391 72.7193C56.8393 86.0269 46.0145 84.7934 45.2299 80.0617V80.0617ZM72.0581 42.7308C75.83 44.6765 74.3017 50.263 74.3017 59.462C74.3017 62.6015 74.3217 65.7251 74.3489 68.8614C74.3898 73.6445 75.2017 74.5832 72.0581 76.1965C68.2841 74.2675 69.8134 68.6789 69.8134 59.462C69.8134 50.263 68.2851 44.6765 72.0581 42.7308V42.7308ZM27.113 42.7308C30.2524 44.3503 29.4448 45.2838 29.4049 50.0616V68.8614C29.4458 73.6445 30.2587 74.5832 27.1141 76.1965C23.9705 74.5895 24.7823 73.6497 24.8232 68.8614V50.0616C24.7834 45.2828 23.9746 44.3492 27.1141 42.7308H27.113ZM45.8404 65.0685C40.7773 65.0685 40.5507 65.5888 37.3274 64.1077C30.8944 61.1508 32.2926 56.1349 45.8404 56.1349C53.0517 56.1349 48.791 59.0718 55.0772 57.4282C58.8375 56.4443 62.3587 56.546 65.1038 59.462C64.7377 67.267 55.9415 62.6654 51.8643 63.4773C49.0941 64.029 51.4248 65.0696 45.8414 65.0696L45.8404 65.0685ZM63.694 44.6073C65.0261 45.696 64.7356 44.1583 65.13 46.6285C65.966 51.8647 53.9076 52.5056 49.4864 50.9301C42.2541 48.3509 47.6844 50.1655 41.9426 50.8567C38.9553 51.2165 35.8054 50.0805 34.0684 48.225C34.2467 44.4625 35.4079 43.8311 39.9119 43.2919C46.2631 42.5325 41.5566 45.9247 47.9277 43.9947C50.6937 43.1566 47.3697 43.1965 52.3772 42.6122C56.3652 42.1476 60.7654 42.2115 63.6951 44.6073H63.694ZM20.2908 43.5437V73.5071C20.2908 80.8537 24.8064 87.5804 31.7954 87.5804H66.909C74.3668 87.5804 78.8823 80.8526 78.8823 73.5071V43.5437C78.8823 38.7061 78.6663 38.1375 73.9315 38.1375H25.2407C20.509 38.1375 20.2898 38.7082 20.2898 43.5437H20.2908ZM58.7568 26.6592C49.563 15.3634 72.0843 15.3624 62.8895 26.7505L58.7568 26.6592ZM42.83 9.48635C51.5517 6.27771 54.7803 19.6252 47.375 21.9003C38.9165 24.4985 34.4219 12.5796 42.83 9.48635ZM42.8426 0.898861C31.1167 3.81695 23.018 12.2345 20.7723 24.124C18.4217 36.5673 22.954 33.6608 33.6687 33.6387L68.3177 33.6482C71.5892 33.6817 76.9104 34.6027 78.4124 32.0622C80.9896 27.7008 76.0524 16.3599 74.5671 13.9369C69.2554 5.27809 57.4603 -2.73879 42.8436 0.898861H42.8426ZM81.5319 107.134C108.019 110.851 97.1629 101.623 95.4521 97.9479C93.1822 93.0704 94.5364 84.1221 94.5364 78.1884L94.6235 47.1761C94.3486 42.457 93.5703 42.6028 88.9142 42.6028C80.8963 42.6028 83.2563 46.6506 83.2889 54.7786L83.3151 90.381C83.3382 97.6825 80.6194 101.738 81.5319 107.135V107.134ZM5.57768 107.767L17.6623 107.287C18.5916 101.511 15.8697 98.3265 15.8508 91.3292L15.8822 55.7153C15.9011 47.4026 18.4427 42.6017 10.258 42.6017C6.03186 42.6017 5.10147 42.0983 4.58855 46.274C4.30744 48.5648 4.63155 54.015 4.6347 56.652C4.64204 63.3934 5.52209 93.2613 4.01374 97.3091C2.68057 100.885 -5.16744 107.768 5.57663 107.768L5.57768 107.767ZM41.4622 106.913H57.7078C59.1102 103.316 57.7729 101.451 56.8414 97.3206C55.5146 91.4404 57.1194 91.9942 48.6515 91.9942C44.0897 91.9942 43.1006 90.1334 41.115 101.834L41.2367 106.064C41.2745 106.292 41.3563 106.639 41.4622 106.912V106.913Z" fill="#14667A" fill-opacity="0.1"/>
</svg>
