<svg width="84" height="84" viewBox="0 0 84 84" fill="none" xmlns="http://www.w3.org/2000/svg">
<path d="M37 2.88675C40.094 1.10042 43.906 1.10042 47 2.88675L73.3731 18.1132C76.4671 19.8996 78.3731 23.2008 78.3731 26.7735V57.2265C78.3731 60.7992 76.4671 64.1004 73.3731 65.8867L47 81.1132C43.906 82.8996 40.094 82.8996 37 81.1132L10.6269 65.8867C7.53292 64.1004 5.62693 60.7992 5.62693 57.2265L5.62693 26.7735C5.62693 23.2008 7.53292 19.8996 10.6269 18.1132L37 2.88675Z" fill="#0052CC"/>
<path d="M31.8034 34.0371C31.0573 33.2403 29.8951 33.2852 29.3879 34.2992L17.1545 58.7666C17.043 58.9896 16.9903 59.2374 17.0015 59.4865C17.0126 59.7355 17.0873 59.9776 17.2184 60.1897C17.3494 60.4018 17.5325 60.5769 17.7503 60.6983C17.968 60.8197 18.2132 60.8834 18.4625 60.8834H35.4993C35.7722 60.8898 36.0411 60.8167 36.2734 60.6732C36.5057 60.5297 36.6912 60.3218 36.8076 60.0748C40.4811 52.4791 38.2555 40.9307 31.8034 34.0369V34.0371Z" fill="#F2F2F2"/>
<path d="M40.7805 11.7834C33.9381 22.6242 34.3897 34.6309 38.8965 43.6447L47.1114 60.0746C47.2328 60.3176 47.4195 60.5219 47.6505 60.6647C47.8815 60.8075 48.1478 60.8832 48.4194 60.8832H65.4559C65.7052 60.8832 65.9504 60.8195 66.1681 60.6981C66.3859 60.5766 66.569 60.4016 66.7001 60.1895C66.8311 59.9774 66.9058 59.7353 66.9169 59.4862C66.9281 59.2372 66.8754 58.9894 66.7639 58.7664C66.7639 58.7664 43.8447 12.9213 43.2682 11.7742C42.7526 10.7473 41.4432 10.7332 40.7805 11.7834Z" fill="#F2F2F2"/>
</svg>
