<svg width="84" height="84" viewBox="0 0 84 84" fill="none" xmlns="http://www.w3.org/2000/svg">
<path d="M37 2.88675C40.094 1.10042 43.906 1.10042 47 2.88675L73.3731 18.1132C76.4671 19.8996 78.3731 23.2008 78.3731 26.7735V57.2265C78.3731 60.7992 76.4671 64.1004 73.3731 65.8867L47 81.1132C43.906 82.8996 40.094 82.8996 37 81.1132L10.6269 65.8867C7.53292 64.1004 5.62693 60.7992 5.62693 57.2265L5.62693 26.7735C5.62693 23.2008 7.53292 19.8996 10.6269 18.1132L37 2.88675Z" fill="#430098"/>
<path d="M57.4041 20C59.5452 20 61.2869 21.7101 61.3368 23.8396L61.338 23.9339V59.775C61.338 61.9161 59.6273 63.6578 57.4984 63.7077L57.4041 63.7089H25.9339C23.7931 63.7089 22.0511 61.9982 22.0012 59.8692L22 59.775V23.9339C22 21.7925 23.711 20.0511 25.8396 20.0012L25.9339 20H57.4041ZM57.4041 22.1854H25.9339C25.4819 22.186 25.0477 22.3614 24.722 22.6748C24.3964 22.9882 24.2045 23.4154 24.1867 23.867L24.1854 23.9339V59.775C24.186 60.227 24.3614 60.6612 24.6748 60.9869C24.9882 61.3125 25.4154 61.5043 25.867 61.5222L25.9339 61.5234H57.4041C57.8561 61.5229 58.2903 61.3477 58.616 61.0343C58.9416 60.7209 59.1335 60.2938 59.1513 59.8422L59.1526 59.7753V23.9336C59.152 23.47 58.9676 23.0256 58.6398 22.6979C58.3121 22.3701 57.8677 22.1857 57.4041 22.1851V22.1854ZM31.8347 48.4108L36.752 52.7817L31.8347 57.1526V48.4108ZM36.2055 26.5563V38.9648C38.3876 38.2546 41.438 37.4836 44.4009 37.4836C47.1027 37.4836 48.7198 38.5457 49.6008 39.4368C51.452 41.3098 51.5052 43.688 51.5034 44.0259L51.503 44.0399L51.5037 57.1526H47.1328V44.1004C47.1115 43.0801 46.6198 41.8548 44.4006 41.8548C40.0011 41.8548 35.0713 44.0454 34.9248 44.111L34.9218 44.1122L31.8347 45.5111V26.5563H36.2055ZM51.5037 26.5563C51.2086 29.039 50.202 31.419 48.2253 33.6588H43.8544C45.5722 31.4053 46.6508 29.0335 47.1328 26.5563H51.5037Z" fill="#F2F2F2"/>
</svg>
