<svg width="84" height="84" viewBox="0 0 84 84" fill="none" xmlns="http://www.w3.org/2000/svg">
<path d="M37 2.88675C40.094 1.10042 43.906 1.10042 47 2.88675L73.3731 18.1132C76.4671 19.8996 78.3731 23.2008 78.3731 26.7735V57.2265C78.3731 60.7992 76.4671 64.1004 73.3731 65.8867L47 81.1132C43.906 82.8996 40.094 82.8996 37 81.1132L10.6269 65.8867C7.53292 64.1004 5.62693 60.7992 5.62693 57.2265L5.62693 26.7735C5.62693 23.2008 7.53292 19.8996 10.6269 18.1132L37 2.88675Z" fill="#0052CC"/>
<path d="M61.7847 21H37.7709C37.7709 23.9325 38.913 26.7449 40.9459 28.8185C42.9788 30.8921 45.7361 32.057 48.6111 32.057H53.0347V36.4136C53.0386 42.5146 57.8865 47.4596 63.8679 47.4636V23.1249C63.8679 21.9517 62.9355 21 61.7847 21Z" fill="#F2F2F2"/>
<path d="M49.9028 33.2046H25.8891C25.8928 39.3057 30.7407 44.2507 36.7223 44.2547H41.1459V48.6251C41.1536 54.7262 46.0047 59.6678 51.9862 59.6678V35.3299C51.9862 34.1563 51.0534 33.2048 49.9028 33.2048V33.2046Z" fill="#F2F2F2"/>
<path d="M38.0139 45.4021H14C14 51.5088 18.8535 56.4591 24.8402 56.4591H29.2777V60.8155C29.2816 66.9109 34.1211 71.8538 40.0973 71.8653V47.5272C40.0973 46.3536 39.1645 45.4021 38.0139 45.4021Z" fill="#F2F2F2"/>
</svg>
