<svg width="84" height="84" viewBox="0 0 84 84" fill="none" xmlns="http://www.w3.org/2000/svg">
<path d="M37 2.88675C40.094 1.10042 43.906 1.10042 47 2.88675L73.3731 18.1132C76.4671 19.8996 78.3731 23.2008 78.3731 26.7735V57.2265C78.3731 60.7992 76.4671 64.1004 73.3731 65.8867L47 81.1132C43.906 82.8996 40.094 82.8996 37 81.1132L10.6269 65.8867C7.53292 64.1004 5.62693 60.7992 5.62693 57.2265L5.62693 26.7735C5.62693 23.2008 7.53292 19.8996 10.6269 18.1132L37 2.88675Z" fill="#00C7B7"/>
<path d="M55.7593 33.4747L55.7377 33.4654C55.7245 33.4615 55.7123 33.4547 55.7022 33.4454C55.6845 33.4264 55.6714 33.4037 55.664 33.3788C55.6565 33.354 55.6548 33.3278 55.6591 33.3023L56.8499 26.0303L62.4339 31.6097L56.6266 34.0778C56.6105 34.0843 56.5932 34.0874 56.5759 34.087H56.5526C56.5412 34.0796 56.5309 34.0708 56.5217 34.0607C56.3056 33.8204 56.0472 33.6217 55.7593 33.4747ZM63.8589 33.0315L69.8294 38.9955C71.0694 40.2357 71.6905 40.8542 71.9168 41.5715C71.9507 41.6775 71.9783 41.7837 72 41.893L57.731 35.8565C57.7233 35.8534 57.7157 35.8503 57.7079 35.8473C57.6508 35.8243 57.5846 35.798 57.5846 35.7397C57.5846 35.6812 57.6524 35.6535 57.7093 35.6305L57.7278 35.6226L63.8589 33.0315ZM71.7566 43.8072C71.4485 44.3857 70.8477 44.9858 69.8311 46.0029L63.0993 52.7257L54.3929 50.9146L54.3468 50.9054C54.2696 50.893 54.188 50.8792 54.188 50.81C54.1549 50.4511 54.0482 50.103 53.8746 49.7871C53.701 49.4713 53.4642 49.1946 53.179 48.9743C53.1435 48.9388 53.153 48.8835 53.1636 48.8326C53.1636 48.825 53.1636 48.8174 53.1668 48.8112L54.8043 38.7694L54.8103 38.7355C54.8195 38.6586 54.8333 38.5694 54.9027 38.5694C55.2535 38.5258 55.5922 38.413 55.899 38.2373C56.2058 38.0616 56.4746 37.8267 56.6897 37.5461C56.7036 37.5307 56.7128 37.5138 56.7312 37.5046C56.7805 37.4816 56.8391 37.5046 56.89 37.5261L71.7552 43.8072H71.7566ZM61.5515 54.2721L50.4818 65.3295L52.3763 53.6966L52.3795 53.6812C52.381 53.6661 52.384 53.6511 52.3887 53.6367C52.4042 53.5998 52.444 53.5844 52.4828 53.5689L52.5012 53.5611C52.916 53.3843 53.2829 53.1117 53.5719 52.7658C53.6088 52.7227 53.6535 52.6809 53.7105 52.6733C53.7252 52.671 53.7404 52.671 53.7552 52.6733L61.5496 54.2737L61.5512 54.2721H61.5515ZM48.1386 67.6699L46.8909 68.9163L33.0964 49.002C33.0914 48.9947 33.0863 48.9874 33.081 48.9803C33.0595 48.951 33.0363 48.922 33.0411 48.8881C33.0425 48.8635 33.0579 48.842 33.075 48.8236L33.0902 48.8036C33.1317 48.7418 33.1674 48.6803 33.2059 48.6141L33.2365 48.5604L33.2411 48.5558C33.2628 48.5189 33.2826 48.4834 33.3197 48.4634C33.352 48.4479 33.3969 48.4542 33.4322 48.4618L48.7148 51.61C48.7577 51.6169 48.7978 51.6342 48.8319 51.6607C48.8519 51.6809 48.8566 51.7024 48.8612 51.727C48.9679 52.1301 49.1664 52.503 49.4411 52.8166C49.7158 53.1303 50.0593 53.3761 50.4447 53.5351C50.4878 53.5565 50.4694 53.6042 50.4493 53.6549C50.4394 53.6772 50.4316 53.7004 50.4263 53.7243C50.2338 54.8937 48.5825 64.9541 48.1386 67.6699ZM45.5323 70.2719C44.6127 71.1813 44.0704 71.6628 43.4574 71.8568C42.8529 72.0477 42.2043 72.0477 41.5998 71.8568C40.8819 71.6289 40.261 71.0105 39.0208 69.7702L25.1678 55.9324L28.7862 50.3267C28.8015 50.2986 28.8226 50.2739 28.848 50.2543C28.8864 50.2267 28.942 50.2391 28.9881 50.2543C29.8186 50.5046 30.7102 50.4595 31.5112 50.1267C31.5527 50.1115 31.5944 50.1006 31.6269 50.1299C31.6431 50.1446 31.6576 50.161 31.67 50.179L45.5323 70.2735V70.2719ZM23.8323 54.5982L20.6543 51.424L26.93 48.7496C26.9461 48.7426 26.9634 48.7389 26.9809 48.7388C27.0332 48.7388 27.0641 48.7911 27.0918 48.8388C27.1549 48.9356 27.2218 49.0301 27.2923 49.1221L27.3121 49.1465C27.3305 49.1728 27.3183 49.1988 27.2999 49.2235L23.8336 54.5982H23.8323ZM19.248 50.019L15.2275 46.0029C14.5434 45.3198 14.0475 44.8243 13.7025 44.3982L25.9272 46.931L25.9733 46.9386C26.0489 46.9508 26.1323 46.9646 26.1323 47.0354C26.1323 47.1124 26.0413 47.1479 25.9641 47.1769L25.9288 47.1923L19.248 50.019ZM13 42.3329C13.014 42.0743 13.0606 41.8184 13.1387 41.5715C13.3667 40.8542 13.9859 40.2357 15.2275 38.9955L20.3725 33.8561C22.7414 37.2904 25.1168 40.7203 27.4986 44.1458C27.54 44.2011 27.5861 44.2626 27.5387 44.3087C27.3137 44.5565 27.0888 44.8273 26.9302 45.1214C26.9129 45.1589 26.8864 45.1919 26.853 45.2165C26.833 45.229 26.8115 45.2244 26.7885 45.2198H26.7853L13 42.3315V42.3329ZM21.7497 32.4804L28.6677 25.5701C29.3176 25.8547 31.6839 26.8533 33.8003 27.7457C35.4025 28.423 36.8627 29.0386 37.3218 29.2384C37.3679 29.2569 37.4096 29.2753 37.4297 29.3214C37.4419 29.349 37.4359 29.3845 37.4297 29.4138C37.3202 29.9127 37.3365 30.431 37.4772 30.922C37.6178 31.4131 37.8784 31.8614 38.2354 32.2267C38.2815 32.2728 38.2354 32.3389 38.1953 32.3958L38.1736 32.4281L31.1494 43.2963C31.131 43.3272 31.1139 43.3532 31.083 43.3733C31.0462 43.3963 30.9938 43.3855 30.9505 43.3749C30.6773 43.3034 30.3965 43.2652 30.1141 43.261C29.8616 43.261 29.5873 43.3071 29.31 43.3578H29.3084C29.2778 43.3624 29.2499 43.3687 29.2255 43.3502C29.1982 43.328 29.1748 43.3016 29.1561 43.2719L21.7497 32.4804ZM30.0651 24.1743L39.0211 15.2283C40.261 13.9895 40.8819 13.3695 41.5996 13.1432C42.2041 12.9523 42.8528 12.9523 43.4574 13.1432C44.1753 13.3695 44.7959 13.9895 46.0361 15.2283L47.9771 17.1672L41.6074 27.0211C41.5916 27.0497 41.5701 27.0748 41.5442 27.0948C41.5058 27.1211 41.4518 27.1103 41.4055 27.0948C40.9033 26.9426 40.3716 26.9149 39.8563 27.0141C39.341 27.1133 38.8577 27.3365 38.4479 27.6643C38.4064 27.7074 38.3446 27.6828 38.2923 27.6597C37.4603 27.2981 30.9906 24.5668 30.0648 24.1746L30.0651 24.1743ZM49.3295 18.5182L55.211 24.3928L53.7937 33.1608V33.1838C53.7924 33.2038 53.7883 33.2235 53.7814 33.2423C53.766 33.273 53.7351 33.2792 53.7042 33.2884C53.4013 33.3801 53.116 33.5222 52.8603 33.7086C52.8492 33.7164 52.8389 33.7251 52.8294 33.7346C52.8123 33.7531 52.7955 33.7701 52.7678 33.7731C52.7452 33.7738 52.7227 33.7701 52.7015 33.7623L43.7392 29.9586L43.7224 29.9508C43.6653 29.9277 43.5975 29.9001 43.5975 29.8416C43.5448 29.3426 43.3817 28.8617 43.12 28.4336C43.0769 28.3629 43.0292 28.2891 43.066 28.2168L49.3295 18.5182ZM43.2725 31.7602L51.674 35.3147C51.7201 35.3361 51.7711 35.3562 51.7911 35.4039C51.7991 35.4325 51.7991 35.4628 51.7911 35.4915C51.7665 35.6148 51.745 35.7547 51.745 35.8964V36.1317C51.745 36.1903 51.6849 36.2147 51.6293 36.2377L51.6125 36.244C50.2815 36.8118 32.927 44.2039 32.9007 44.2039C32.8747 44.2039 32.8468 44.2039 32.8208 44.1778C32.7747 44.1317 32.8208 44.0672 32.8623 44.0084L32.8839 43.9778L39.7881 33.299L39.8003 33.2806C39.8404 33.2158 39.8867 33.1435 39.9607 33.1435L40.0298 33.1543C40.187 33.1757 40.3258 33.1958 40.4659 33.1958C41.5134 33.1958 42.4839 32.6865 43.0693 31.8155C43.0831 31.7925 43.1008 31.7717 43.1216 31.754C43.1631 31.7233 43.2248 31.7388 43.2725 31.7602ZM33.6509 45.8934L52.5676 37.8351C52.5676 37.8351 52.5952 37.8351 52.6215 37.8614C52.7245 37.9644 52.8123 38.0335 52.8971 38.0983L52.9386 38.1243C52.9773 38.146 53.0158 38.1704 53.0188 38.2105C53.0188 38.226 53.0188 38.2352 53.0158 38.249L51.3952 48.1924L51.389 48.2325C51.3783 48.3092 51.3675 48.397 51.2952 48.397C50.8632 48.426 50.4449 48.5599 50.0764 48.787C49.7079 49.0141 49.4002 49.3276 49.1801 49.7003L49.1723 49.7125C49.1509 49.748 49.1308 49.7817 49.0953 49.8001C49.0631 49.8158 49.0216 49.8095 48.9875 49.8019L33.9021 46.6936C33.8867 46.6906 33.668 45.895 33.6509 45.8934Z" fill="#F2F2F2"/>
</svg>
