<svg width="84" height="84" viewBox="0 0 84 84" fill="none" xmlns="http://www.w3.org/2000/svg">
<path d="M37 2.88675C40.094 1.10042 43.906 1.10042 47 2.88675L73.3731 18.1132C76.4671 19.8996 78.3731 23.2008 78.3731 26.7735V57.2265C78.3731 60.7992 76.4671 64.1004 73.3731 65.8867L47 81.1132C43.906 82.8996 40.094 82.8996 37 81.1132L10.6269 65.8867C7.53292 64.1004 5.62693 60.7992 5.62693 57.2265L5.62693 26.7735C5.62693 23.2008 7.53292 19.8996 10.6269 18.1132L37 2.88675Z" fill="#F2F2F2"/>
<path d="M35.9674 22.0016V58.5578L43.7959 61.1844V30.5219C43.7959 29.0797 44.4064 28.1203 45.3904 28.4531C46.6564 28.8359 46.9069 30.1547 46.9069 31.5953V43.8344C51.7909 46.3172 55.6324 43.8266 55.6324 37.2672C55.6324 30.5219 53.3824 27.525 46.7584 25.125C44.1409 24.1875 39.2959 22.65 35.9764 22L35.9674 22.0016ZM45.2809 55.8391L57.8749 51.0938C59.3029 50.5578 59.5234 49.7938 58.3669 49.3938C57.1954 48.9953 55.0924 49.1 53.6464 49.6453L45.2404 52.7703V47.7969L45.7159 47.6266C45.7159 47.6266 48.1219 46.75 51.5434 46.3406C54.9349 45.9672 59.1154 46.4047 62.4199 47.7156C66.1159 48.9703 66.5059 50.7844 65.5684 52.0391C64.6384 53.2828 62.3269 54.1953 62.3269 54.1953L45.2404 60.6641V55.8781L45.2809 55.8391ZM21.6169 55.3438C17.8114 54.2047 17.1874 51.8688 18.9124 50.5C20.5144 49.2875 23.2249 48.3125 23.2249 48.3125L34.4584 44.1203V48.9375L26.4124 52.0063C24.9979 52.5688 24.7639 53.325 25.9369 53.7234C27.1084 54.1313 29.2084 54.0422 30.6169 53.4797L34.4914 52.0063V56.3266C34.2574 56.3844 33.9829 56.4156 33.7099 56.4813C29.8354 57.1672 25.7254 56.8891 21.6394 55.4813L21.6169 55.3438Z" fill="#333333"/>
</svg>
