<svg width="84" height="84" viewBox="0 0 84 84" fill="none" xmlns="http://www.w3.org/2000/svg">
<path d="M37 2.88675C40.094 1.10042 43.906 1.10042 47 2.88675L73.3731 18.1132C76.4671 19.8996 78.3731 23.2008 78.3731 26.7735V57.2265C78.3731 60.7992 76.4671 64.1004 73.3731 65.8867L47 81.1132C43.906 82.8996 40.094 82.8996 37 81.1132L10.6269 65.8867C7.53292 64.1004 5.62693 60.7992 5.62693 57.2265L5.62693 26.7735C5.62693 23.2008 7.53292 19.8996 10.6269 18.1132L37 2.88675Z" fill="#0052CC"/>
<path d="M62.0799 20H48.9201C47.3074 20 46 21.2952 46 22.8929V44.1071C46 45.7048 47.3074 47 48.9201 47H62.0799C63.6926 47 65 45.7048 65 44.1071V22.8929C65 21.2952 63.6926 20 62.0799 20Z" fill="#F2F2F2"/>
<path d="M36.0799 20H22.9201C21.3074 20 20 21.3126 20 22.9318V60.0682C20 61.6874 21.3074 63 22.9201 63H36.0799C37.6926 63 39 61.6874 39 60.0682V22.9318C39 21.3126 37.6926 20 36.0799 20Z" fill="#F2F2F2"/>
</svg>
