<svg width="84" height="84" viewBox="0 0 84 84" fill="none" xmlns="http://www.w3.org/2000/svg">
<path d="M37 2.88675C40.094 1.10042 43.906 1.10042 47 2.88675L73.3731 18.1132C76.4671 19.8996 78.3731 23.2008 78.3731 26.7735V57.2265C78.3731 60.7992 76.4671 64.1004 73.3731 65.8867L47 81.1132C43.906 82.8996 40.094 82.8996 37 81.1132L10.6269 65.8867C7.53292 64.1004 5.62693 60.7992 5.62693 57.2265L5.62693 26.7735C5.62693 23.2008 7.53292 19.8996 10.6269 18.1132L37 2.88675Z" fill="#007ACC"/>
<path d="M62.207 24.608L53.1976 20.2705C52.6888 20.0252 52.1163 19.9442 51.5595 20.0388C51.0026 20.1335 50.489 20.399 50.0898 20.7986L20.5976 47.6861C20.2398 48.0108 20.0256 48.4643 20.0021 48.9469C19.9787 49.4295 20.1479 49.9017 20.4726 50.2595C20.5117 50.3017 20.5507 50.3424 20.5929 50.3799L23.0007 52.5674C23.3154 52.8537 23.7204 53.0208 24.1454 53.0396C24.5704 53.0585 24.9886 52.9279 25.3273 52.6705L60.8507 25.733C61.119 25.5294 61.4389 25.4047 61.7742 25.373C62.1095 25.3413 62.447 25.4038 62.7488 25.5536C63.0505 25.7033 63.3044 25.9343 63.482 26.2205C63.6596 26.5067 63.7537 26.8368 63.7539 27.1736V27.0689C63.7538 26.5547 63.6086 26.0509 63.335 25.6156C63.0613 25.1802 62.6703 24.831 62.207 24.608Z" fill="#F2F2F2"/>
<path d="M62.207 58.8893L53.1976 63.2283C52.6887 63.4729 52.1163 63.5535 51.5596 63.4589C51.0029 63.3643 50.4894 63.0992 50.0898 62.7002L20.5976 35.8111C20.2398 35.4864 20.0256 35.0329 20.0021 34.5503C19.9787 34.0677 20.1479 33.5955 20.4726 33.2377C20.5117 33.1955 20.5507 33.1549 20.5929 33.1174L23.0007 30.9299C23.3157 30.6423 23.7216 30.4745 24.1477 30.4556C24.5737 30.4368 24.9929 30.5681 25.332 30.8268L60.8507 57.7643C61.119 57.9679 61.4389 58.0925 61.7742 58.1242C62.1095 58.1559 62.447 58.0934 62.7488 57.9437C63.0505 57.794 63.3044 57.563 63.482 57.2768C63.6596 56.9906 63.7537 56.6605 63.7539 56.3236V56.4361C63.7522 56.949 63.6062 57.451 63.3327 57.8848C63.0591 58.3186 62.669 58.6667 62.207 58.8893Z" fill="#F2F2F2"/>
<path d="M53.1976 63.2283C52.6886 63.473 52.1163 63.5535 51.5596 63.4589C51.0029 63.3643 50.4893 63.0992 50.0897 62.7002C50.3141 62.9217 50.5989 63.072 50.9083 63.1323C51.2178 63.1926 51.5381 63.1603 51.8292 63.0393C52.1204 62.9184 52.3693 62.7142 52.5449 62.4523C52.7205 62.1905 52.8149 61.8827 52.8163 61.5674V21.9299C52.8166 21.6132 52.7228 21.3035 52.5469 21.0401C52.371 20.7766 52.1209 20.5714 51.8283 20.4502C51.5356 20.3291 51.2136 20.2975 50.903 20.3595C50.5924 20.4216 50.3072 20.5744 50.0835 20.7986C50.4828 20.3992 50.9963 20.1336 51.553 20.0387C52.1098 19.9438 52.6823 20.0243 53.1913 20.269L62.1991 24.6002C62.6639 24.8221 63.0565 25.1709 63.3316 25.6063C63.6067 26.0417 63.7531 26.5461 63.7538 27.0611V56.4361C63.7539 56.9508 63.6087 57.455 63.3347 57.8907C63.0607 58.3264 62.6693 58.6758 62.2054 58.8986L53.1976 63.2283Z" fill="#F2F2F2"/>
</svg>
