<svg width="84" height="84" viewBox="0 0 84 84" fill="none" xmlns="http://www.w3.org/2000/svg">
<path d="M37 2.88675C40.094 1.10042 43.906 1.10042 47 2.88675L73.3731 18.1132C76.4671 19.8996 78.3731 23.2008 78.3731 26.7735V57.2265C78.3731 60.7992 76.4671 64.1004 73.3731 65.8867L47 81.1132C43.906 82.8996 40.094 82.8996 37 81.1132L10.6269 65.8867C7.53292 64.1004 5.62693 60.7992 5.62693 57.2265L5.62693 26.7735C5.62693 23.2008 7.53292 19.8996 10.6269 18.1132L37 2.88675Z" fill="#7952B3"/>
<path d="M35.4557 38.7239V30.7936H42.4362C43.1012 30.7936 43.7421 30.8489 44.3594 30.9598C44.9767 31.0705 45.523 31.2683 45.9979 31.5533C46.4726 31.8383 46.8525 32.2341 47.1376 32.7405C47.4224 33.2471 47.565 33.8961 47.565 34.6873C47.565 36.1121 47.1376 37.1411 46.2827 37.7741C45.428 38.4074 44.3358 38.7239 43.006 38.7239H35.4557ZM28 25V58.9062H44.4307C45.9504 58.9062 47.4305 58.7164 48.8709 58.3364C50.3114 57.9564 51.5935 57.3708 52.7174 56.5794C53.8412 55.788 54.7356 54.7668 55.4004 53.5165C56.0654 52.2659 56.3977 50.7858 56.3977 49.0763C56.3977 46.9551 55.8832 45.1427 54.8544 43.639C53.8254 42.1351 52.2662 41.0825 50.1767 40.4809C51.6963 39.7529 52.8441 38.8189 53.6198 37.6792C54.3953 36.5395 54.7831 35.115 54.7831 33.4053C54.7831 31.8224 54.5219 30.4928 53.9995 29.4163C53.4772 28.3401 52.7411 27.4773 51.7913 26.8283C50.8417 26.1793 49.702 25.7122 48.3722 25.4274C47.0426 25.1424 45.5704 25 43.9558 25H28ZM35.4557 53.1127V43.8051H43.5759C45.1905 43.8051 46.4885 44.1769 47.4701 44.9211C48.4514 45.6651 48.9423 46.9076 48.9423 48.6488C48.9423 49.5354 48.7918 50.2634 48.491 50.8333C48.1902 51.4031 47.7866 51.8544 47.28 52.1867C46.7736 52.5192 46.1877 52.7565 45.523 52.8992C44.858 53.0413 44.1617 53.1127 43.4335 53.1127H35.4557Z" fill="#F2F2F2"/>
</svg>
