<svg width="84" height="84" viewBox="0 0 84 84" fill="none" xmlns="http://www.w3.org/2000/svg">
<path d="M37 2.88675C40.094 1.10042 43.906 1.10042 47 2.88675L73.3731 18.1132C76.4671 19.8996 78.3731 23.2008 78.3731 26.7735V57.2265C78.3731 60.7992 76.4671 64.1004 73.3731 65.8867L47 81.1132C43.906 82.8996 40.094 82.8996 37 81.1132L10.6269 65.8867C7.53292 64.1004 5.62693 60.7992 5.62693 57.2265L5.62693 26.7735C5.62693 23.2008 7.53292 19.8996 10.6269 18.1132L37 2.88675Z" fill="#1572B6"/>
<path d="M25.312 38.6396L25.9648 46.3666H42.2671V38.6396H25.312Z" fill="#F2F2F2"/>
<path d="M24 23L24.6622 30.727H42.2672V23H24Z" fill="#F2F2F2"/>
<path d="M42.2672 58.7074L42.2353 58.7164L34.1221 56.3927L33.6034 50.2302H26.2904L27.3109 62.3627L42.2337 66.7565L42.2672 66.7468V58.7074Z" fill="#F2F2F2"/>
<path d="M59.1757 38.6396L60.4908 23H42.242V30.727H52.5071L51.8443 38.6396H42.242V46.3666H51.2127L50.3669 56.3879L42.2418 58.714V66.7528L57.1764 62.3627L57.2859 61.0572L58.998 40.7145L59.1757 38.6396Z" fill="#F2F2F2"/>
</svg>
