<svg width="84" height="84" viewBox="0 0 84 84" fill="none" xmlns="http://www.w3.org/2000/svg">
<path d="M37 2.88675C40.094 1.10042 43.906 1.10042 47 2.88675L73.3731 18.1132C76.4671 19.8996 78.3731 23.2008 78.3731 26.7735V57.2265C78.3731 60.7992 76.4671 64.1004 73.3731 65.8867L47 81.1132C43.906 82.8996 40.094 82.8996 37 81.1132L10.6269 65.8867C7.53292 64.1004 5.62693 60.7992 5.62693 57.2265L5.62693 26.7735C5.62693 23.2008 7.53292 19.8996 10.6269 18.1132L37 2.88675Z" fill="#E34F26"/>
<path d="M31.2033 30.5062H41.8221V23H23L23.1796 25.0138L25.0246 45.6989H41.8221V38.1927H31.8894L31.2033 30.5062Z" fill="#F2F2F2"/>
<path d="M32.8951 49.4521H25.3599L26.4115 61.2381L41.7875 65.5063L41.8221 65.4969V57.6872L41.7891 57.6959L33.4295 55.4387L32.8951 49.4521Z" fill="#F2F2F2"/>
<path d="M41.7963 45.6989H51.0394L50.1679 55.4339L41.796 57.6935V65.5027L57.1843 61.2381L57.2971 59.9698L59.0613 40.2083L59.2443 38.1927H41.7963V45.6989Z" fill="#F2F2F2"/>
<path d="M41.7962 30.4879V30.5062H59.9273L60.0777 28.8192L60.4199 25.0138L60.5993 23H41.7962V30.4881V30.4879Z" fill="#F2F2F2"/>
</svg>
