<svg width="84" height="84" viewBox="0 0 84 84" fill="none" xmlns="http://www.w3.org/2000/svg">
<path d="M37 2.88675C40.094 1.10042 43.906 1.10042 47 2.88675L73.3731 18.1132C76.4671 19.8996 78.3731 23.2008 78.3731 26.7735V57.2265C78.3731 60.7992 76.4671 64.1004 73.3731 65.8867L47 81.1132C43.906 82.8996 40.094 82.8996 37 81.1132L10.6269 65.8867C7.53292 64.1004 5.62693 60.7992 5.62693 57.2265L5.62693 26.7735C5.62693 23.2008 7.53292 19.8996 10.6269 18.1132L37 2.88675Z" fill="#F7DF1E"/>
<path d="M56.7859 54.4849C57.2403 55.408 57.9463 56.1839 58.8226 56.7231C59.6989 57.2623 60.7097 57.543 61.7385 57.5327C63.8148 57.5327 65.1425 56.4945 65.1425 55.0563C65.1425 53.342 63.7786 52.7286 61.4928 51.7286L60.2394 51.1914C56.6201 49.6504 54.22 47.7207 54.22 43.6405C54.22 39.8822 57.0773 37.0192 61.5594 37.0192C63.0104 36.9145 64.4601 37.2392 65.7276 37.9529C66.9952 38.6667 68.0246 39.7378 68.6874 41.0328L64.7691 43.5377C64.5139 42.8956 64.0695 42.3462 63.495 41.9625C62.9204 41.5788 62.2427 41.3787 61.5518 41.389C61.2504 41.3588 60.946 41.3918 60.658 41.4857C60.37 41.5797 60.1048 41.7326 59.8791 41.9348C59.6535 42.1369 59.4725 42.3838 59.3476 42.6598C59.2227 42.9358 59.1566 43.2348 59.1536 43.5377C59.1536 45.0406 60.0851 45.6502 62.2357 46.5854L63.4891 47.1226C67.7483 48.9494 70.1561 50.8104 70.1561 54.9954C70.1561 59.508 66.6111 61.9805 61.8509 61.9805C59.9961 62.0987 58.1468 61.6776 56.5261 60.768C54.9053 59.8584 53.5825 58.4993 52.7171 56.8545L56.7859 54.4849ZM39.0802 54.9192C39.8669 56.3155 40.5831 57.4965 42.3051 57.4965C43.9509 57.4965 44.991 56.8526 44.991 54.3477V37.305H50.0027V54.4144C50.0027 59.6032 46.9549 61.9653 42.5185 61.9653C40.9503 62.051 39.3929 61.6602 38.051 60.8442C36.7091 60.0283 35.6455 58.8254 35 57.3936L39.0802 54.9192Z" fill="#333333"/>
</svg>
