<svg width="84" height="84" viewBox="0 0 84 84" fill="none" xmlns="http://www.w3.org/2000/svg">
<path d="M37 2.88675C40.094 1.10042 43.906 1.10042 47 2.88675L73.3731 18.1132C76.4671 19.8996 78.3731 23.2008 78.3731 26.7735V57.2265C78.3731 60.7992 76.4671 64.1004 73.3731 65.8867L47 81.1132C43.906 82.8996 40.094 82.8996 37 81.1132L10.6269 65.8867C7.53292 64.1004 5.62693 60.7992 5.62693 57.2265L5.62693 26.7735C5.62693 23.2008 7.53292 19.8996 10.6269 18.1132L37 2.88675Z" fill="#333333"/>
<path d="M54.1067 63.8781C53.9207 63.9765 53.9363 64.0078 54.1145 63.9171C54.1694 63.8947 54.2197 63.8624 54.2629 63.8218C54.2629 63.789 54.2629 63.789 54.1067 63.8781ZM54.4816 63.6749C54.3926 63.7484 54.3926 63.7484 54.4988 63.6999C54.5381 63.6815 54.574 63.6567 54.6051 63.6265C54.6051 63.5843 54.5801 63.5937 54.4816 63.6749ZM54.7254 63.5281C54.6363 63.6015 54.6363 63.6015 54.7426 63.5531C54.782 63.5343 54.8179 63.5089 54.8488 63.4781C54.8488 63.439 54.8238 63.4468 54.7254 63.5281ZM54.9723 63.3827C54.8832 63.4562 54.8832 63.4562 54.9863 63.4062C55.0441 63.3749 55.0926 63.3421 55.0926 63.3327C55.0926 63.2937 55.0676 63.3015 54.9723 63.3827ZM55.3051 63.1624C55.1348 63.2765 55.0754 63.3499 55.2316 63.2687C55.3363 63.2046 55.5144 63.064 55.4832 63.064C55.416 63.089 55.3597 63.1312 55.3035 63.1624H55.3051ZM40.3633 17.0115C40.2493 17.0193 39.9071 17.0505 39.6071 17.0755C32.5011 17.7193 25.8528 21.5444 21.6389 27.4367C19.3102 30.6684 17.7965 34.4148 17.2266 38.3572C17.025 39.7323 17 40.1385 17 42.0026C17 43.8652 17.025 44.2652 17.2266 45.6402C18.5875 55.0326 25.2685 62.9171 34.3245 65.839C35.9541 66.3594 37.6619 66.7187 39.6071 66.9391C40.3633 67.0203 43.6335 67.0203 44.3898 66.9391C47.7522 66.5641 50.5911 65.7343 53.4004 64.3015C53.8317 64.0827 53.9129 64.0249 53.8551 63.9765C52.4847 62.1649 51.1258 60.3445 49.7787 58.5154L45.7835 53.12L40.7789 45.7058C39.1143 43.2234 37.4325 40.7524 35.7338 38.2932C35.7166 38.2932 35.6947 41.5885 35.6854 45.6074C35.6682 52.6466 35.6682 52.9325 35.5791 53.095C35.4937 53.2913 35.3407 53.4505 35.1479 53.5435C34.9932 53.6169 34.8541 53.6325 34.1151 53.6325H33.2698L33.0495 53.495C32.9115 53.4065 32.7994 53.2831 32.7245 53.1372L32.6183 52.9169L32.6261 43.1183L32.6433 33.3196L32.7979 33.1243C32.8967 33.0042 33.0183 32.9049 33.1557 32.8321C33.3604 32.7337 33.4417 32.7181 34.287 32.7181C35.2791 32.7181 35.4432 32.7571 35.7041 33.0431C37.7314 36.0585 39.7413 39.0857 41.7336 42.1245C44.9819 47.0496 49.4162 53.77 51.5958 57.067L55.5597 63.0655L55.755 62.9359C57.6601 61.6698 59.3864 60.1537 60.8877 58.4279C64.0369 54.8233 66.0804 50.3873 66.7734 45.6511C66.975 44.2761 67 43.8683 67 42.0057C67 40.1416 66.975 39.7432 66.7734 38.3682C65.4126 28.9758 58.7315 21.0913 49.6755 18.1678C47.9831 17.6317 46.241 17.2668 44.4757 17.0787C44.0023 17.0302 40.7711 16.9724 40.3649 17.0146L40.3633 17.0115ZM50.5927 32.1321C50.7089 32.1892 50.8126 32.2689 50.8977 32.3666C50.9827 32.4642 51.0474 32.5779 51.088 32.7009C51.1302 32.8321 51.138 35.5494 51.1302 41.6698L51.113 50.4575L49.5677 48.0824L48.0131 45.7058V39.326C48.0131 35.19 48.0303 32.8712 48.0522 32.7571C48.1286 32.4956 48.3041 32.2742 48.5412 32.1399C48.7349 32.0415 48.8099 32.0337 49.5834 32.0337C50.3068 32.0337 50.4286 32.0415 50.5911 32.1321H50.5927Z" fill="#F2F2F2"/>
</svg>
