<svg width="84" height="84" viewBox="0 0 84 84" fill="none" xmlns="http://www.w3.org/2000/svg">
<path d="M37 2.88675C40.094 1.10042 43.906 1.10042 47 2.88675L73.3731 18.1132C76.4671 19.8996 78.3731 23.2008 78.3731 26.7735V57.2265C78.3731 60.7992 76.4671 64.1004 73.3731 65.8867L47 81.1132C43.906 82.8996 40.094 82.8996 37 81.1132L10.6269 65.8867C7.53292 64.1004 5.62693 60.7992 5.62693 57.2265L5.62693 26.7735C5.62693 23.2008 7.53292 19.8996 10.6269 18.1132L37 2.88675Z" fill="#61DAFB"/>
<path d="M61.332 32.1784C60.6934 31.9609 60.0495 31.7594 59.4007 31.5741C59.5097 31.1319 59.61 30.6952 59.6991 30.2661C61.1611 23.2199 60.2053 17.5433 56.9407 15.6743C53.8106 13.8826 48.6916 15.7509 43.5218 20.2179C43.0123 20.6589 42.5141 21.1127 42.0277 21.5787C41.702 21.2688 41.3706 20.9649 41.0337 20.6672C35.6154 15.8909 30.1845 13.8779 26.9234 15.7523C23.7961 17.5496 22.8701 22.886 24.1863 29.5638C24.3173 30.2252 24.4651 30.8832 24.6298 31.5371C23.861 31.7539 23.1192 31.9848 22.4093 32.2305C16.0568 34.4295 12 37.8754 12 41.4498C12 45.1415 16.3552 48.8444 22.9716 51.0897C23.508 51.2709 24.0488 51.4389 24.5937 51.5934C24.4167 52.2977 24.2596 53.0068 24.1226 53.7198C22.8677 60.2818 23.8477 65.492 26.9665 67.278C30.1877 69.1223 35.5943 67.2268 40.8586 62.6578C41.2855 62.2864 41.7029 61.9044 42.1106 61.5123C42.6374 62.0169 43.1782 62.5068 43.7325 62.9815C48.832 67.338 53.8683 69.0971 56.9841 67.3063C60.2023 65.4566 61.2483 59.8594 59.8903 53.0496C59.7833 52.5161 59.6634 51.9853 59.5305 51.4575C59.9102 51.3458 60.2829 51.2309 60.6462 51.1113C67.5246 48.8488 72 45.1909 72 41.4498C72 37.8624 67.8122 34.3932 61.332 32.1784ZM59.8402 48.6959C59.512 48.8037 59.1755 48.9077 58.8323 49.0089C58.073 46.6222 57.0483 44.0844 55.7941 41.4622C56.9909 38.9025 57.9762 36.3971 58.7142 34.026C59.328 34.2023 59.9236 34.3883 60.4978 34.5844C66.0502 36.4823 69.4369 39.2879 69.4369 41.4498C69.4369 43.7526 65.7792 46.742 59.8402 48.6959ZM57.3759 53.5439C57.9764 56.5549 58.062 59.2775 57.6642 61.4059C57.307 63.3184 56.5884 64.5934 55.6997 65.1041C53.809 66.1908 49.7653 64.7784 45.4043 61.0525C44.8888 60.6111 44.3857 60.1556 43.8956 59.6865C45.5864 57.8508 47.276 55.7168 48.9251 53.3466C51.8257 53.0911 54.566 52.6731 57.0511 52.1028C57.1734 52.5931 57.2822 53.0738 57.3759 53.5439ZM32.4553 64.9163C30.608 65.5639 29.1366 65.5825 28.2471 65.0734C26.3545 63.9897 25.5677 59.8061 26.6409 54.1945C26.7685 53.5314 26.9146 52.8719 27.079 52.2168C29.5366 52.7567 32.257 53.1448 35.1645 53.3789C36.8248 55.6982 38.5631 57.8299 40.3151 59.6965C39.9428 60.0542 39.5616 60.4027 39.172 60.7418C36.844 62.7621 34.5112 64.1954 32.4553 64.9163ZM23.8008 48.6817C20.8751 47.6888 18.4589 46.3985 16.8028 44.9905C15.3145 43.7254 14.5634 42.469 14.5634 41.4498C14.5634 39.2807 17.8205 36.5139 23.253 34.6335C23.9123 34.4055 24.6023 34.1902 25.3184 33.9883C26.0693 36.4129 27.0541 38.9481 28.2427 41.5117C27.0387 44.1132 26.0398 46.6889 25.2816 49.1422C24.7842 49.0008 24.2905 48.8473 23.8008 48.6817ZM26.7019 29.0749C25.5743 23.3537 26.3231 19.0379 28.2077 17.9547C30.2149 16.801 34.6535 18.4459 39.3319 22.5702C39.6369 22.8397 39.9371 23.1148 40.2321 23.3951C38.4888 25.2536 36.7664 27.3695 35.1209 29.675C32.299 29.9347 29.5978 30.3517 27.1144 30.9104C26.9614 30.3022 26.8238 29.6903 26.7019 29.0752V29.0749ZM52.5832 35.42C51.9966 34.4141 51.3883 33.4208 50.7586 32.4408C52.673 32.6812 54.5072 33.0002 56.2296 33.3902C55.7126 35.0359 55.068 36.7562 54.3094 38.52C53.7548 37.4754 53.1793 36.4418 52.5832 35.42ZM42.0288 25.2138C43.211 26.4855 44.3951 27.9052 45.5597 29.4456C43.1972 29.3348 40.8307 29.3344 38.4682 29.4442C39.634 27.918 40.8281 26.5002 42.0288 25.2138ZM31.4067 35.4375C30.8181 36.4511 30.2533 37.4781 29.7129 38.5179C28.9666 36.7603 28.328 35.0321 27.8065 33.3632C29.5184 32.983 31.3439 32.6721 33.2461 32.4362C32.6094 33.4221 31.9961 34.4227 31.4067 35.4373V35.4375ZM33.3007 50.6445C31.3355 50.4267 29.4825 50.1319 27.7711 49.7619C28.3008 48.0632 28.9535 46.2982 29.7159 44.503C30.2585 45.5435 30.8256 46.5712 31.4168 47.5853C32.0248 48.6278 32.6543 49.6488 33.3007 50.6445ZM42.0996 57.865C40.8846 56.5638 39.6729 55.1241 38.4895 53.5758C39.6384 53.6204 40.8096 53.6432 42 53.6432C43.223 53.6432 44.4319 53.616 45.6218 53.5634C44.4534 55.1397 43.2738 56.5815 42.0996 57.865ZM54.3335 44.4113C55.1355 46.2263 55.8115 47.982 56.3482 49.6516C54.6087 50.0458 52.7304 50.3632 50.7513 50.5989C51.3855 49.6008 51.9996 48.5902 52.5933 47.5678C53.1969 46.5286 53.7771 45.4762 54.3335 44.4113ZM50.373 46.2964C49.4642 47.8639 48.5042 49.4017 47.4947 50.9072C45.666 51.0358 43.8333 51.0997 42 51.0987C40.1327 51.0987 38.3166 51.041 36.5677 50.9284C35.5318 49.4263 34.5535 47.8859 33.6349 46.3103H33.6352C32.7209 44.7432 31.8669 43.1421 31.0751 41.5106C31.8649 39.8787 32.7163 38.2768 33.6274 36.7085L33.6272 36.7087C34.538 35.1399 35.5084 33.6061 36.5365 32.1104C38.3208 31.9764 40.1505 31.9066 41.9998 31.9066H42C43.8577 31.9066 45.6898 31.9771 47.4736 32.1121C48.4913 33.6054 49.4555 35.134 50.3646 36.695C51.2788 38.2599 52.1414 39.8539 52.9512 41.4745C52.1497 43.1117 51.2898 44.72 50.373 46.2964ZM55.6605 17.8789C57.6696 19.0293 58.451 23.6685 57.1887 29.7523C57.108 30.1404 57.0176 30.5358 56.9191 30.9367C54.4296 30.3661 51.7266 29.9419 48.8965 29.6783C47.2479 27.3474 45.5395 25.2283 43.8246 23.3937C44.2741 22.9636 44.7342 22.5446 45.2046 22.1372C49.6343 18.31 53.7743 16.7989 55.6605 17.8789ZM42 36.1304C44.959 36.1304 47.3578 38.5121 47.3578 41.4498C47.3578 44.3876 44.959 46.7692 42 46.7692C39.041 46.7692 36.6422 44.3876 36.6422 41.4498C36.6422 38.5121 39.041 36.1304 42 36.1304Z" fill="#333333"/>
</svg>
