<svg width="84" height="84" viewBox="0 0 84 84" fill="none" xmlns="http://www.w3.org/2000/svg">
<path d="M37 2.88675C40.094 1.10042 43.906 1.10042 47 2.88675L73.3731 18.1132C76.4671 19.8996 78.3731 23.2008 78.3731 26.7735V57.2265C78.3731 60.7992 76.4671 64.1004 73.3731 65.8867L47 81.1132C43.906 82.8996 40.094 82.8996 37 81.1132L10.6269 65.8867C7.53292 64.1004 5.62693 60.7992 5.62693 57.2265L5.62693 26.7735C5.62693 23.2008 7.53292 19.8996 10.6269 18.1132L37 2.88675Z" fill="#CC6699"/>
<path d="M64.4888 45.4773C62.3667 45.4884 60.5222 46.0023 58.9779 46.762C58.411 45.6336 57.8444 44.6283 57.7445 43.8908C57.6333 43.0307 57.5 42.5056 57.6332 41.4777C57.7667 40.4499 58.3667 38.9863 58.3555 38.8747C58.3445 38.763 58.222 38.2379 56.9999 38.2268C55.7778 38.2156 54.7222 38.4614 54.5999 38.7853C54.4777 39.1092 54.2444 39.8467 54.0888 40.6061C53.8777 41.7236 51.6445 45.7117 50.3669 47.8008C49.9556 46.9855 49.6001 46.2704 49.5222 45.7006C49.4111 44.8405 49.2777 44.3154 49.4111 43.2876C49.5446 42.2597 50.1445 40.7964 50.1333 40.6845C50.1221 40.5728 49.9999 40.0477 48.7778 40.0366C47.5554 40.0254 46.4998 40.2712 46.3778 40.5951C46.2556 40.9193 46.1221 41.6788 45.8667 42.4162C45.611 43.1536 42.6444 49.8121 41.8667 51.5323C41.5523 52.2286 41.2226 52.9177 40.8778 53.5992C40.8778 53.5992 40.8666 53.6328 40.8332 53.6886C40.7249 53.9023 40.6138 54.1146 40.5001 54.3254V54.3364C40.3333 54.6383 40.1556 54.9174 40.0667 54.9174C40 54.9174 39.8777 54.1131 40.0888 53.0182C40.5332 50.7058 41.5888 47.1084 41.5779 46.9855C41.5779 46.9184 41.7778 46.2929 40.889 45.9687C40.0221 45.6448 39.7112 46.181 39.6332 46.181C39.5556 46.181 39.4998 46.371 39.4998 46.371C39.4998 46.371 40.4667 42.3268 37.6555 42.3268C35.9001 42.3268 33.4777 44.2595 32.2777 46.0023C30.9136 46.7487 29.5506 47.4972 28.1888 48.2479C27.5336 48.6166 26.8556 48.9853 26.2223 49.3315C26.1777 49.287 26.1334 49.2309 26.0889 49.1863C22.6888 45.5332 16.4001 42.9524 16.6667 38.0481C16.7668 36.2606 17.3778 31.5683 28.7445 25.8708C38.0999 21.2344 45.5445 22.519 46.8334 25.3679C48.6777 29.4346 42.8446 36.9868 33.1777 38.0814C29.4889 38.4949 27.5555 37.0649 27.0668 36.5287C26.5556 35.97 26.4777 35.9364 26.2888 36.0483C25.9778 36.216 26.1777 36.7187 26.2888 37.009C26.5778 37.7685 27.7666 39.1092 29.7777 39.7686C31.5555 40.3493 35.8777 40.6735 41.1111 38.6401C46.9666 36.361 51.5444 30.0266 50.2001 24.7201C48.8554 19.3352 39.9666 17.5589 31.5555 20.564C26.5556 22.3518 21.1333 25.1669 17.2334 28.8313C12.6 33.1882 11.8666 36.9755 12.1666 38.562C13.2445 44.1925 20.9668 47.8569 24.0556 50.5716C23.9 50.661 23.7554 50.7393 23.6334 50.8064C22.0888 51.5771 16.1999 54.6716 14.7333 57.945C13.0668 61.654 15.0002 64.3131 16.2779 64.6704C20.2445 65.7765 24.3222 63.788 26.5111 60.5033C28.6999 57.2188 28.4333 52.9511 27.4223 50.9961C27.4111 50.9739 27.4001 50.9513 27.3777 50.9291C27.7778 50.6945 28.1888 50.4487 28.5889 50.2141C29.3242 49.7771 30.0689 49.3561 30.8223 48.9515C30.4444 49.9906 30.1666 51.2307 30.0334 53.0182C29.8666 55.1187 30.722 57.8444 31.8443 58.9168C32.3445 59.3864 32.9332 59.3974 33.3112 59.3974C34.6222 59.3974 35.2112 58.3025 35.8667 57.0066C36.6666 55.4203 37.3889 53.5769 37.3889 53.5769C37.3889 53.5769 36.4889 58.5596 38.9334 58.5596C39.8222 58.5596 40.7222 57.3976 41.1223 56.8056V56.8166C41.1223 56.8166 41.1444 56.783 41.189 56.7049C41.2779 56.5597 41.3334 56.4701 41.3334 56.4701V56.4481C41.6889 55.8223 42.489 54.4035 43.6778 52.0462C45.2112 49.0076 46.689 45.2093 46.689 45.2093C46.689 45.2093 46.8224 46.1364 47.2778 47.6782C47.5447 48.5831 48.0999 49.5773 48.5445 50.5381C48.189 51.0409 47.9667 51.3201 47.9667 51.3201L47.9779 51.3313C47.6888 51.7111 47.3779 52.1243 47.0333 52.5268C45.8221 53.979 44.3779 55.6438 44.1777 56.1239C43.9442 56.6937 44 57.1072 44.4446 57.4424C44.7668 57.6882 45.3444 57.7215 45.9334 57.6882C47.0223 57.6098 47.7889 57.3418 48.1666 57.1743C48.7556 56.962 49.4445 56.6379 50.0888 56.1575C51.2778 55.2749 51.9998 54.0125 51.9333 52.3481C51.9 51.4319 51.6 50.5158 51.2333 49.6554C51.3445 49.4992 51.4444 49.3428 51.5556 49.1863C53.4333 46.4268 54.889 43.3992 54.889 43.3992C54.889 43.3992 55.0224 44.3264 55.4778 45.8683C55.7001 46.6503 56.1557 47.4994 56.5555 48.326C54.7889 49.7673 53.6999 51.443 53.3111 52.5379C52.6112 54.5712 53.1555 55.4871 54.1889 55.6994C54.6554 55.8 55.3222 55.5765 55.8111 55.3642C56.4333 55.1632 57.1667 54.817 57.8668 54.3029C59.0558 53.4205 60.2 52.1914 60.1333 50.527C60.0999 49.7673 59.9 49.0186 59.6222 48.2924C61.1222 47.6671 63.0556 47.3207 65.522 47.6111C70.8112 48.2366 71.8555 51.5546 71.6554 52.9514C71.4555 54.3477 70.3444 55.1074 69.9779 55.3419C69.6109 55.5767 69.4889 55.6548 69.5223 55.8223C69.5666 56.0681 69.7444 56.0571 70.0556 56.0123C70.489 55.9342 72.8335 54.8839 72.9333 52.3143C73.1001 49.0299 69.9888 45.4438 64.4888 45.4773ZM23.6889 59.308C21.9332 61.2295 19.4889 61.9556 18.4334 61.3414C17.3001 60.682 17.7445 57.8444 19.9 55.8113C21.211 54.5712 22.8999 53.4202 24.0222 52.7166C24.2777 52.5601 24.6556 52.3369 25.1112 52.0575C25.1889 52.0127 25.2334 51.9904 25.2334 51.9904L25.5001 51.8227C26.2888 54.7274 25.5334 57.2859 23.6889 59.308ZM36.4667 50.5716C35.8555 52.0688 34.5779 55.9007 33.8001 55.6884C33.1334 55.5097 32.7221 52.6049 33.6667 49.7338C34.1444 48.2924 35.1555 46.572 35.7445 45.9019C36.7 44.8293 37.7556 44.4716 38.011 44.9076C38.3334 45.4773 36.8444 49.6332 36.4667 50.5716ZM47.0111 55.6436C46.7555 55.7778 46.5112 55.8671 46.4 55.8C46.3223 55.7552 46.5112 55.5765 46.5112 55.5765C46.5112 55.5765 47.8335 54.1467 48.3555 53.4986C48.6558 53.1189 49.011 52.672 49.389 52.1691V52.3143C49.389 54.0238 47.7443 55.1745 47.0109 55.6436H47.0111ZM55.1444 53.778C54.9554 53.6438 54.9888 53.197 55.6222 51.8004C55.8666 51.253 56.4442 50.3371 57.4333 49.4544C57.5444 49.8119 57.6223 50.1583 57.6111 50.4822C57.5999 52.6385 56.0668 53.4428 55.1444 53.778Z" fill="#F2F2F2"/>
</svg>
