<svg width="84" height="84" viewBox="0 0 84 84" fill="none" xmlns="http://www.w3.org/2000/svg">
<path d="M37 2.88675C40.094 1.10042 43.906 1.10042 47 2.88675L73.3731 18.1132C76.4671 19.8996 78.3731 23.2008 78.3731 26.7735V57.2265C78.3731 60.7992 76.4671 64.1004 73.3731 65.8867L47 81.1132C43.906 82.8996 40.094 82.8996 37 81.1132L10.6269 65.8867C7.53292 64.1004 5.62693 60.7992 5.62693 57.2265L5.62693 26.7735C5.62693 23.2008 7.53292 19.8996 10.6269 18.1132L37 2.88675Z" fill="#3178C6"/>
<path d="M32.0171 39.4933L32 41.7092H39.0431V61.7225H44.0253V41.7092H51.0684V39.5362C51.0684 38.3335 51.0426 37.3286 51.0084 37.3028C50.9826 37.2686 46.6965 37.2512 41.5 37.2599L32.0431 37.2857L32.0173 39.4931L32.0171 39.4933Z" fill="#F2F2F2"/>
<path d="M63.7145 37.2227C65.0887 37.5664 66.1367 38.176 67.0987 39.1724C67.5969 39.7051 68.3354 40.6758 68.3957 40.9076C68.4126 40.9763 66.0593 42.5568 64.6336 43.4414C64.582 43.4759 64.3757 43.2525 64.1438 42.9088C63.4482 41.8954 62.7181 41.4572 61.6014 41.3801C59.9611 41.2683 58.9044 42.1273 58.9131 43.5615C58.9131 43.9826 58.9731 44.2316 59.1449 44.5753C59.5058 45.3225 60.1756 45.7691 62.2801 46.6795C66.1538 48.346 67.8114 49.4454 68.8423 51.0086C69.9933 52.7524 70.251 55.5352 69.4693 57.6053C68.6104 59.8556 66.4804 61.3847 63.4824 61.8914C62.5549 62.0545 60.3561 62.0288 59.3597 61.8485C57.1867 61.4618 55.1252 60.3883 53.8539 58.9796C53.3557 58.4298 52.3851 56.9954 52.4453 56.8923C52.4711 56.858 52.6943 56.7206 52.9433 56.5746C53.1839 56.4372 54.0945 55.913 54.9533 55.415L56.508 54.513L56.8344 54.9941C57.2897 55.6897 58.2859 56.6433 58.8873 56.961C60.6136 57.8716 62.9844 57.7426 64.1525 56.6946C64.6507 56.2395 64.8568 55.7671 64.8568 55.0712C64.8568 54.4443 64.7794 54.1695 64.4531 53.6973C64.0324 53.0959 63.1734 52.589 60.7339 51.5328C57.9424 50.33 56.7399 49.5828 55.6405 48.3974C55.0049 47.7104 54.4035 46.6108 54.1545 45.6918C53.9484 44.9274 53.8966 43.0119 54.06 42.2389C54.6356 39.5417 56.6712 37.6609 59.6087 37.1024C60.562 36.9221 62.7781 36.9908 63.7145 37.2229V37.2227Z" fill="#F2F2F2"/>
</svg>
